<?xml version="1.0" encoding="UTF-8"?>
<!DOCTYPE svg PUBLIC "-//W3C//DTD SVG 1.1//EN" "http://www.w3.org/Graphics/SVG/1.1/DTD/svg11.dtd">
<!-- Creator: CorelDRAW -->
<svg xmlns="http://www.w3.org/2000/svg" xml:space="preserve" width="84.6667mm" height="84.6667mm" version="1.1" style="shape-rendering:geometricPrecision; text-rendering:geometricPrecision; image-rendering:optimizeQuality; fill-rule:evenodd; clip-rule:evenodd"
viewBox="0 0 437.24 437.24"
 xmlns:xlink="http://www.w3.org/1999/xlink"
 xmlns:xodm="http://www.corel.com/coreldraw/odm/2003">
 <defs>
  <style type="text/css">
   <![CDATA[
    .fil3 {fill:none}
    .fil2 {fill:black}
    .fil1 {fill:#262624}
    .fil0 {fill:#D97757}
   ]]>
  </style>
   <clipPath id="id0">
    <path d="M218.62 437.24c-120.74,0 -218.62,-97.88 -218.62,-218.62 0,-120.74 97.88,-218.62 218.62,-218.62 120.74,0 218.62,97.88 218.62,218.62 0,120.74 -97.88,218.62 -218.62,218.62z"/>
   </clipPath>
 </defs>
 <g id="Capa_x0020_1">
  <metadata id="CorelCorpID_0Corel-Layer"/>
  <path class="fil0" d="M218.62 437.24c-120.74,0 -218.62,-97.88 -218.62,-218.62 0,-120.74 97.88,-218.62 218.62,-218.62 120.74,0 218.62,97.88 218.62,218.62 0,120.74 -97.88,218.62 -218.62,218.62z"/>
  <g style="clip-path:url(#id0)">
   <g id="_3013361587344">
    <g>
     <g id="Introduction">
      <g id="variations">
       <g id="images">
        <g id="a-person_x002f_bust">
         <g id="body_x002f_Polo-and-Sweater">
          <path id="_1" class="fil0" d="M73.47 518.92c24.9,0.7 48.41,1.47 73.26,0 39.76,-2.46 156.45,1.97 182.1,0 1.94,-0.15 8.59,1.97 8.73,0 1.13,-13.75 1.86,-152.87 -1.49,-162.45 -3.35,-9.57 -19.88,-55.59 -40.95,-77.05 -5.88,-5.8 -14.82,-8.04 -19.75,-14.74 -4.26,-7.31 -3.93,-11.59 -8.13,-15.44 -1.83,-1.67 -6.13,-2.34 -9.33,-4.66 -3.21,-3.2 -0.17,-10.23 -1.49,-14.68 -2.72,-11.11 -12.74,-18.25 -23.69,-19.93 -15.22,-3.64 -31.3,-0.2 -38.59,11.76 -2.71,4.45 -1.27,9.87 -4.61,17 0.24,5.39 -6.06,6.7 -9.82,8.83l-7.47 7.55c-23.01,12.95 -50.09,19.95 -70.25,37.35 -17.14,17.4 -34.19,37.51 -41.8,61.05 -1.58,6.41 -2.09,13.04 -2.74,19.6 -1.86,19.15 -7.05,37.74 -11.52,56.4 -5.09,23.5 -9.84,48.46 -2.98,72.19 1.98,5.02 26.01,16.98 30.51,17.21z"/>
          <path id="__xd83d__xdd8d_-Ink" class="fil1" d="M192.81 223.66c0.2,-0.65 1.06,-0.47 1.12,0.15 0.65,6.13 -0.17,12.54 -0.95,18.64 -0.37,2.94 -0.59,6 -1.16,8.9 -0.07,0.31 -0.14,0.62 -0.21,0.93 0.19,0.33 0.74,0.71 1,0.96l1.15 1.12 2.3 2.23c4.5,4.36 9,8.72 13.5,13.09l6.61 6.41c2.27,2.2 4.84,4.3 6.83,6.75 1.08,1.33 1.32,2.96 0.26,4.38 -0.52,0.7 -1.47,1.22 -2.42,1.32 0.37,0.52 0.66,1.11 0.85,1.77 0.37,1.33 -0.98,2.97 -2.41,2.42 -1.63,-0.63 -2.98,-1.75 -4.64,-2.29 -1.68,-0.54 -3.5,-0.65 -5.23,-0.36 -0.8,0.13 -1.58,0.33 -2.34,0.59 8.14,3.75 16.94,5.9 25.92,6.21 1.83,0.06 3.66,0.04 5.47,-0.09 3.06,-0.2 6.09,-0.66 9.08,-1.41 2.35,-0.59 4.67,-1.33 6.92,-2.23 1.11,-0.44 2.2,-0.92 3.26,-1.47l0.09 -0.06c0.24,-0.15 4.66,-2.66 4.73,-3.03 0.08,-0.38 0.08,-0.51 -0.07,-0.84 -0.1,-0.22 -0.28,-0.4 -0.54,-0.55 -1.36,-0.58 -2.78,-1.13 -4.27,-1.14 -3.43,-0.02 -7.18,2.52 -10.01,4.25 -3.12,1.9 -5.98,4.12 -8.99,6.18 -0.07,0.05 -0.15,0.07 -0.22,0.07 -0.32,0 -0.61,-0.39 -0.41,-0.7 2.15,-3.17 5.05,-5.81 8.09,-8.11l1.22 -0.92c2.78,-2.07 6.03,-4.37 9.41,-4.87 4.14,-0.61 8.47,1.97 12.16,3.49l6.55 2.68c1.17,0.48 2.44,0.88 3.61,1.42l-2.74 -8.59c-1.37,-4.29 -2.74,-8.59 -4.09,-12.89l-0.26 -0.84c-1.35,-4.36 -2.59,-8.9 -4.83,-12.89 -0.54,-0.96 -1.15,-1.85 -1.76,-2.76 -0.63,-0.94 -0.87,-1.98 -1.66,-2.82 -1.57,-1.66 -3.82,-2.64 -5.97,-3.28 -0.52,-0.15 -0.37,-0.85 0.12,-0.9 2.2,-0.23 4.3,0.28 6.29,1.21l0.83 0.39c1.88,0.89 3.72,1.72 5.12,3.32 3.19,3.65 4.84,8.25 6.36,12.79l0.41 1.22c0.57,-0.19 4.44,0.99 4.92,1.27 14.5,6.13 25.66,17.54 33.83,30.92 8.94,14.65 13.82,31.4 17.84,47.97 1.24,5.11 2.43,10.24 3.57,15.39 -5.08,1.96 -10.48,2.98 -15.23,5.73 -1.81,1.05 -0.18,3.86 1.64,2.81 4.45,-2.58 9.53,-3.53 14.29,-5.34 2.58,11.9 4.88,23.87 6.81,35.89 5.92,36.88 9.65,74.37 9.42,111.76 -0,0.83 -0.25,1.75 -0.7,2.54 0.26,-0.13 0.47,-0.29 0.59,-0.47 1.5,-2.36 5.26,-0.17 3.75,2.2l-0.22 0.34c-1.13,1.75 -2.19,3.08 -4.18,4.07 -2,0.99 -4.18,1.16 -6.39,1.22 -7.52,0.2 -15.04,0.33 -22.57,0.42 -1.03,-8.05 -1.45,-16.18 -2.87,-24.19 -0.37,-2.06 -3.5,-1.19 -3.14,0.87 1.37,7.73 1.81,15.58 2.77,23.36 -16.09,0.17 -32.19,0.18 -48.26,0.22 -21.79,0.06 -43.57,0.02 -65.36,0.01l-9.34 -0c-25.17,0 -50.34,-0.08 -75.5,-0.25l-5.99 -0.04c-2.38,-14.04 -4,-28.2 -4.03,-42.47 -0,-2.09 -3.26,-2.1 -3.25,0 0.03,14.25 1.63,28.42 3.99,42.45 -5.96,-0.03 -11.91,-0 -17.87,0.21l-3.03 0.11c-6.07,0.21 -12.15,0.34 -18.21,-0.15 -6.73,-0.54 -13.53,-1.78 -19.56,-4.95 -2.72,-1.43 -5.11,-3.26 -7.15,-5.41 2.08,-1.21 4.19,-2.37 6.2,-3.69 1.74,-1.14 0.12,-3.96 -1.64,-2.81 -2.17,1.42 -4.45,2.66 -6.68,3.97 -1.62,-2.16 -2.94,-4.55 -3.95,-7.14 -1.59,-4.08 -2.2,-8.47 -2.74,-12.79 -0.63,-5.09 -0.89,-10.22 -0.89,-15.34 0,-10.78 1.13,-21.52 2.72,-32.17 1.51,-10.2 3.51,-20.32 5.63,-30.41l0.29 -1.37c2.09,-9.92 4.07,-19.86 6.46,-29.71 2.21,-9.11 4.77,-18.17 7.81,-27.06 2.71,1.68 5.55,3.14 8.21,4.89 1.76,1.15 3.39,-1.67 1.64,-2.81 -2.85,-1.86 -5.88,-3.41 -8.75,-5.23 3.4,-9.52 7.4,-18.81 12.19,-27.71 9.59,-17.83 22.52,-33.78 39.09,-45.55 8.29,-5.89 17.38,-10.71 26.94,-14.22 9.74,-3.58 19.83,-5.54 30.15,-6.35 0.29,-0.02 0.46,0.25 0.45,0.5l-0 0.05 0.41 0.07c0.15,-1.02 0.46,-2.01 1.05,-2.92 1.34,-2.07 3.89,-3.39 5.92,-4.66l0.48 -0.3c2.42,-1.5 4.97,-2.98 7.78,-3.5 0.1,-0.02 0.16,0.09 0.09,0.16 -1.85,2.13 -4.23,3.75 -6.4,5.55l-0.5 0.42c-1.8,1.48 -4.31,3.17 -4.38,5.65 -0.08,2.92 0.52,5.96 0.74,8.87 0.22,2.9 0.37,5.8 0.44,8.72 0.28,10.43 -0.06,20.87 -0.98,31.26l4.08 -2.73c6.35,-4.25 12.73,-8.5 19.23,-12.48 3.94,-2.41 8.36,-4.47 13.08,-4.38 1.32,0.02 2.81,0.22 4.24,0.62 -1.54,-1.46 -3.02,-3.01 -4.52,-4.48 -2.48,-2.42 -4.97,-4.84 -7.45,-7.26l-7.16 -6.98 -7.17 -6.98c-2.22,-2.17 -4.82,-4.16 -4.59,-7.58 0.19,-2.72 1.58,-5.44 2.52,-8.07 0.13,-0.38 0.26,-0.75 0.37,-1.12 1.91,-6.35 3,-12.94 4.94,-19.27zm92.58 272.6c-1.48,-1.48 -3.78,0.82 -2.3,2.3l0.78 0.78c1.31,1.31 2.61,2.65 3.51,4.27l0.13 0.24c0.98,1.85 3.78,0.21 2.81,-1.64 -1.21,-2.29 -3.13,-4.14 -4.94,-5.95zm-63.48 -0.42c-4.72,-0.9 -9.26,-0.9 -13.98,0 -2.05,0.39 -1.18,3.53 0.87,3.14 4.13,-0.79 8.12,-0.79 12.25,0 2.05,0.39 2.92,-2.74 0.87,-3.14zm-63.7 -32.8c-2.03,-0.52 -2.9,2.62 -0.86,3.14l1 0.25c3.4,0.84 6.64,1.47 10.17,0.69 2.02,-0.45 1.2,-3.51 -0.78,-3.15l-0.08 0.02c-3.27,0.72 -6.28,-0.14 -9.44,-0.94zm113.13 -21.14c-1.5,-1.46 -3.8,0.84 -2.3,2.3 1.88,1.83 4.09,3.21 6.77,3.29 2.06,0.06 2.09,-3.1 0.09,-3.25l-0.09 -0c-1.8,-0.05 -3.23,-1.13 -4.47,-2.34zm-191.43 -8.69c1.87,-0.94 0.23,-3.74 -1.64,-2.81l-11.24 5.62 0 0c-1.87,0.94 -0.23,3.74 1.64,2.81l11.24 -5.62 0 0zm222.13 0.72c-2.09,-0.06 -2.09,3.2 0,3.25 1.97,0.05 3.98,0.8 5.74,1.65 1.88,0.91 3.53,-1.89 1.64,-2.81 -2.29,-1.11 -4.81,-2.03 -7.38,-2.1zm-105.03 -15.71c1.72,-1.17 0.1,-3.99 -1.64,-2.81 -2.37,1.61 -4.52,3.52 -6.85,5.18l-0.64 0.45c-1.72,1.17 -0.1,3.99 1.64,2.81 2.59,-1.76 4.91,-3.87 7.49,-5.62zm120.96 -23.65c-2.09,-0 -2.1,3.25 0,3.25l0.4 -0c1.73,-0.01 3.55,-0.06 5.15,0.63l0.18 0.08c1.88,0.89 3.54,-1.92 1.64,-2.81 -2.36,-1.11 -4.82,-1.16 -7.38,-1.16zm-180.64 -2.32l0.27 -0.1c1.96,-0.7 1.11,-3.85 -0.87,-3.14 -2.98,1.07 -5.3,3.09 -7.88,4.85 -1.72,1.17 -0.1,3.99 1.64,2.81 2.23,-1.51 4.3,-3.43 6.83,-4.42l0 0zm122 -8.47l0.44 -0.23c1.86,-0.96 0.22,-3.77 -1.64,-2.81 -1.48,0.76 -2.8,1.77 -4.25,2.58l-0.44 0.23c-1.86,0.96 -0.22,3.77 1.64,2.81 1.48,-0.76 2.8,-1.77 4.24,-2.58l0 0zm-49.48 -31.52l-0.33 -0.32c-1.5,-1.47 -3.8,0.83 -2.3,2.3 3.74,3.67 8.17,6.45 12.63,9.14l0.81 0.49c1.8,1.08 3.44,-1.73 1.64,-2.81l-1.19 -0.72c-3.97,-2.39 -7.89,-4.87 -11.26,-8.08l0 0zm-90.01 -3.04c1.26,-1.64 -1.48,-3.24 -2.76,-1.7l-0.04 0.06c-1.31,1.71 -2.87,3.25 -4.5,4.66l-0.31 0.26c-0.97,0.83 -2.73,2.59 -4.09,2.71 -2.07,0.18 -2.09,3.43 0,3.25 2.11,-0.18 3.92,-1.66 5.51,-2.93 2.32,-1.85 4.39,-3.96 6.2,-6.31zm173.05 -11.85c1.51,-1.42 -0.72,-3.68 -2.25,-2.35l-0.05 0.05c-2.83,2.65 -6.89,3.37 -10.52,4.27 -2.03,0.5 -1.17,3.64 0.86,3.14l1.66 -0.41c3.72,-0.93 7.44,-2.01 10.3,-4.7zm-64.42 -20.53c-2.03,-0.52 -2.9,2.62 -0.86,3.14 3.45,0.88 6.72,2.01 9.92,3.58 1.87,0.92 3.52,-1.88 1.64,-2.81 -3.44,-1.69 -6.98,-2.97 -10.69,-3.91zm33.23 -68.6c-0.05,-0.15 0.11,-0.31 0.26,-0.26 3.65,1.36 1.71,6.14 0.58,9.01l-0.21 0.52c-1.78,4.59 -4.26,9.05 -6.97,13.16 -2.83,4.3 -5.98,8.42 -9.39,12.28 -1.48,1.68 -3.01,3.31 -4.6,4.89l-0.6 0.59c-1.6,1.58 -3.67,4.34 -6.15,4.04 -2.68,-0.32 -4.17,-3.18 -2.22,-5.35 1.38,-1.54 3.29,-2.76 4.83,-4.16 1.53,-1.38 3.01,-2.81 4.45,-4.28 2.95,-3.01 5.75,-6.2 8.31,-9.55 2.47,-3.25 4.84,-6.58 6.99,-10.05l0.43 -0.7c1.64,-2.7 5.42,-6.66 4.28,-10.14zm-129.33 34.08c-1.73,-1.18 -3.36,1.63 -1.64,2.81 3.16,2.16 5.95,4.78 9.37,6.56 1.83,0.95 3.46,-1.78 1.71,-2.77l-0.07 -0.04c-3.42,-1.78 -6.21,-4.4 -9.37,-6.56z"/>
         </g>
         <g id="head_x002f_Gray-Short">
          <path id="__xd83c__xdfa8_-Background_0" class="fil0" d="M242.46 251.1c-9.02,0.05 -16.69,-2.51 -22.55,-6.75 -7.3,-2.61 -16.11,-6.62 -21.46,-10.84 -2.09,0.53 -4.58,-1.69 -6.18,-2.86 -9.93,-7.42 -17.73,-18.28 -20.04,-29.16 -3.57,4.5 -8.64,4.69 -13.5,2.45 -10.19,-5.78 -9.81,-17.95 -6.14,-27.05 -7.71,-17.31 -13.06,-63.01 -1.28,-81.45 2.41,-2.76 5.94,-4.41 8.49,-7.24 2.26,-2.47 4.42,-5 7.05,-6.96 8.04,-6.12 21.88,-9.38 30.55,-10.91 36.18,-7.83 63.98,6.24 96.75,18.1 -1.89,4.72 -4.5,9.02 -7.49,13.03 8.14,3.04 4.4,9.87 -1.91,13.33l-3.76 -1.83c5.86,20.97 19.34,73.1 13.52,89.85 -4.64,26.12 -24.99,48.45 -52.04,48.26z"/>
          <path id="__xd83d__xdd8d_-Ink_1" class="fil2" d="M197.05 68.02c16.28,-2.99 33,-3.15 49.08,1.06 8.2,2.15 16.15,5.16 24.09,8.09 8.31,3.06 16.62,6.1 24.93,9.15 0.75,0.27 1.47,1.13 1.13,1.99 -1.7,4.32 -3.88,8.35 -6.56,12.09 2.14,1.07 3.61,3.39 3.66,6.02 0.09,4.6 -4.2,7.62 -7.63,9.85 -0.6,0.39 -1.18,0.38 -1.65,0.15 3.66,13.98 7.18,28 10.15,42.14l0.2 0.95c2.96,14.3 4.88,28.89 2.08,43.38 -2.4,12.42 -7.97,24.41 -16.67,33.66 -8.5,9.03 -19.91,14.72 -32.25,15.99 -11.45,1.18 -25.09,-1.47 -32.74,-10.8 -0.44,-0.53 0.11,-1.36 0.76,-0.99l0.72 0.4c5.41,2.99 11.04,5.53 17.17,6.63 6.33,1.13 12.78,1 19.06,-0.43 24.12,-5.5 38.56,-28.97 40.76,-52.46 1.39,-14.88 -1.83,-29.67 -5.17,-44.08 -3.5,-15.07 -7.32,-30.06 -11.76,-44.87 -0.17,-0.55 -0.14,-1.05 0.03,-1.47 -4.9,-2.69 -11.05,3.28 -14.75,5.81 -2.49,1.7 -5.2,2.94 -8.24,3.13 -3.19,0.2 -6.32,-0.81 -9.21,-2.05 -5.93,-2.54 -11.48,-5.44 -17.75,-7.13 -6.25,-1.68 -12.71,-2.51 -19.18,-2.45 -11.69,0.11 -23.38,3.17 -30.53,13.05 -2.99,4.13 -4.88,8.88 -3.36,13.96 0.81,2.72 2.33,5.19 4.01,7.46l0.55 0.75c1.42,1.94 2.6,3.83 1.13,6.22 -0.82,1.33 -2.05,2.41 -2.95,3.68 -0.8,1.14 -1.51,2.36 -2.07,3.64 -1.09,2.49 -1.56,5.17 -1.66,7.88 -0.19,5.39 1.21,10.59 1.51,15.94 0.04,0.66 -0.84,0.64 -1.05,0.14 -2.44,-5.79 -4.04,-12.7 -3.29,-19.01 0.36,-3 1.26,-5.89 2.72,-8.53 0.84,-1.52 1.87,-2.92 2.99,-4.25l0.4 -0.46c0.53,-0.62 0.93,-1.19 0.49,-2.13 -0.37,-0.79 -1.18,-1.55 -1.71,-2.26 -3.23,-4.38 -5.69,-9.59 -4.9,-15.15 0.77,-5.47 4.38,-10.55 8.19,-14.38 8.5,-8.56 21.68,-10.47 33.21,-10 6.77,0.28 13.52,1.47 19.97,3.55 3.18,1.03 6.29,2.28 9.3,3.72l0.67 0.32c2.8,1.36 5.58,2.83 8.63,3.58 7.01,1.72 11.1,-3.46 16.53,-6.73l0.27 -0.16c4.19,-2.43 9.89,-3.43 13.68,0.21 0.31,0.3 0.47,0.62 0.52,0.95 0.2,0.24 0.36,0.55 0.46,0.91 0.78,2.94 1.56,5.88 2.34,8.82 0.13,-0.18 0.3,-0.34 0.52,-0.48l0.94 -0.6c1.76,-1.14 3.63,-2.47 4.48,-4.37 0.69,-1.52 0.07,-4.85 -2.16,-4.65l-0.1 0.01c-1.78,0.24 -3.05,-1.59 -1.78,-3.05 3.01,-3.47 5.52,-7.33 7.36,-11.54l-12.55 -4.64c-4.18,-1.55 -8.36,-3.09 -12.55,-4.63l-2.29 -0.84c-7.64,-2.8 -15.33,-5.54 -23.28,-7.35 -15.84,-3.6 -32.36,-2.76 -48.16,0.63l-0.95 0.21c-6.65,1.45 -13.38,3.21 -19.48,6.26 -3.04,1.52 -5.92,3.36 -8.4,5.7 -2.55,2.4 -4.53,5.33 -7.27,7.54l-1.5 1.2c-2.33,1.88 -4.41,3.72 -5.72,6.62 -1.34,2.97 -1.99,6.25 -2.51,9.45 -1.3,7.93 -1.81,15.98 -1.76,24.01 0.09,14.15 2.34,27.99 5.11,41.8 1.95,-3.55 5,-6.56 9.18,-7.11 4.51,-0.59 8.95,1.68 11.09,5.7 0.08,0.15 -0.11,0.3 -0.24,0.18 -3.67,-3.46 -9.67,-3.66 -13.41,-0.17 -3.53,3.29 -4.62,8.65 -4.65,13.28 -0.04,4.77 1.14,10.43 5.27,13.37 1.71,1.22 3.8,1.94 5.9,1.97 2.19,0.02 4.26,-0.95 6.31,-1.62 1.55,-0.51 2.5,1.27 1.94,2.52 -0.11,0.24 -0.23,0.47 -0.37,0.69l1.11 1.83c3.34,5.47 6.73,10.84 11.18,15.54 2.56,2.71 5.28,5.26 8.26,7.5l0.43 0.32c1.09,0.8 2.71,2.45 4.13,2.5 1.2,0.05 1.86,-0.56 2.7,0.68 0.35,0.52 0.33,1.33 0,1.86 -2.14,3.46 -6.53,0.09 -8.79,-1.65l-0.27 -0.21c-3.19,-2.43 -6.21,-5.13 -8.87,-8.14 -4.77,-5.4 -9.03,-11.82 -10.99,-18.85 -3.31,3.11 -9.53,2.3 -13.31,0.51 -10.05,-4.77 -11.39,-18.87 -7.77,-28.18 0.1,-0.25 0.2,-0.49 0.3,-0.74 -6.27,-15.73 -8.19,-33.22 -7.66,-50.03 0.25,-7.81 0.78,-16.01 2.62,-23.63 0.8,-3.31 2.19,-6.47 4.41,-9.08 2.45,-2.87 5.98,-4.51 8.53,-7.29l0.56 -0.62c2.14,-2.36 4.19,-4.67 6.77,-6.6 2.83,-2.11 5.95,-3.76 9.2,-5.13 7.07,-2.98 14.67,-4.77 22.19,-6.15zm-39.31 115.96c2.97,-1.42 6.27,-2.05 9.54,-1.6l0.33 0.05c2.83,0.42 7.62,1.6 8.17,4.76 0.19,1.08 -0.46,2.25 -1.69,2.22 -1.54,-0.04 -2.35,-0.82 -3.51,-1.7 -1.12,-0.84 -2.35,-1.55 -3.66,-2.06 -2.86,-1.11 -5.86,-1.47 -8.88,-0.94 -0.42,0.07 -0.75,-0.52 -0.31,-0.73z"/>
         </g>
         <g id="face_x002f_Smiling">
          <path id="__xd83d__xdd8d_-Ink_2" class="fil2" d="M249.85 217.52c-2.73,-1.12 -5.17,-2.98 -6.96,-5.35 -0.62,-0.83 -0.78,-1.7 -0.65,-2.5 0.15,-0.9 0.68,-1.71 1.4,-2.26 0.73,-0.55 1.63,-0.82 2.51,-0.68 0.76,0.12 1.52,0.54 2.12,1.4l0.13 0.17c1.06,1.44 2.44,2.61 4.02,3.37 1.52,0.73 3.21,1.07 4.97,0.87 3.34,-0.38 5.65,-2.19 8.1,-4.64 0.3,-0.31 0.61,-0.63 0.91,-0.96 0.19,-0.29 0.46,-0.48 0.76,-0.58 0.33,-0.11 0.7,-0.1 1.05,0.01 0.33,0.12 0.62,0.33 0.82,0.62 0.19,0.28 0.29,0.62 0.26,1.01 -0.22,2.55 -1.56,4.82 -3.45,6.6 -2.1,1.98 -4.88,3.35 -7.5,3.83 -2.89,0.53 -5.83,0.15 -8.49,-0.94l0 0zm9.85 -39.28c3.07,1.87 7.75,6.22 4.45,10.85 -3.89,4.08 -9.49,-0.6 -12.24,-2.71 -2.56,-1.64 -5.43,2.58 -3.06,4.49 19.93,14.76 28.02,-12.14 12.41,-14.82 -1.72,-0.3 -2.36,1.62 -1.55,2.2zm-35.72 -17.17c0.34,-4.21 6.75,-5.17 7.39,-1 0.57,3.73 -0.1,7.16 -1.78,10.53 -1.61,3.21 -5.64,1.71 -5.95,-1.21 -0.41,-3.92 0.13,-5.69 0.34,-8.31zm48.82 -1.86c0.89,-1.17 2.18,-1.97 3.73,-1.52 4.83,1.41 3.41,8.28 1.71,11.62 -0.92,1.81 -3.9,2.27 -5.25,0.68 -2.2,-2.61 -3.25,-7.81 -0.46,-10.37 0.08,-0.13 0.16,-0.27 0.26,-0.4zm-43.28 -16.57l0.76 -0.13c2.36,-0.41 5.3,-0.8 6.97,1.1 0.89,1.01 1.19,2.88 0,3.84 -2.09,1.7 -4.41,1.04 -6.92,1.18 -2.07,0.12 -4.06,0.46 -6.05,1.03 -4.37,1.25 -7.93,3.53 -11.67,6.04 -0.49,0.33 -0.99,-0.3 -0.76,-0.76 2.16,-4.22 6.33,-7.69 10.52,-9.81 2.23,-1.13 4.68,-2.06 7.15,-2.49zm38.87 -1.89l0.58 0.12c6.36,1.33 14.62,3.99 17.63,10.23 0.12,0.88 -0.01,1.07 -0.1,1.2l-0.03 0.04c-0.08,0.11 -0.15,0.25 -0.53,0.37 -0.11,-0.02 -0.21,-0.05 -0.32,-0.08 -1.38,-0.36 -2.47,-0.86 -3.53,-1.38l-1.15 -0.57c-1.33,-0.65 -2.67,-1.28 -4.09,-1.74 -3.03,-0.99 -6.16,-1.69 -9.32,-2.06 -0.69,-0.08 -1.35,-0.31 -1.87,-0.71 -0.5,-0.38 -0.87,-0.9 -1.05,-1.59 -0.22,-0.9 -0.16,-1.58 0.32,-2.39 0.36,-0.61 0.88,-1.03 1.48,-1.27 0.61,-0.25 1.3,-0.3 1.99,-0.17z"/>
         </g>
         <g id="facial-hair_x002f_Full-4">
          <path id="__xd83c__xdfa8_-Background_3" class="fil0" d="M170.91 174.75c2.87,0 4.05,6.69 4.05,6.69 7.31,12.61 14.34,25.18 26.9,33.85 13.93,5.59 27.64,15.1 43.52,16.14 7.16,-0.75 9.26,-7.31 18.1,-5 5.64,1.37 11.97,4.07 17.19,0.17 4.41,-2.88 7.51,-7.25 11.31,-10.78 0.19,-0.64 1.46,6.08 1.07,8.36l-0.29 1.29c-2.35,10.4 -4.73,22.64 -15.27,28.36 -3.21,1.69 -7.71,3.32 -11.27,2.37 -18.82,3 -39.23,0.81 -55.71,-8.58 -5.8,-1.51 -10.12,-6.14 -14.69,-9.64 -11.18,-9.79 -23.99,-22.2 -25.18,-37.08 -1.19,-14.88 -0.66,-26.16 0.28,-26.16zm56.85 29.38c6.4,-10.29 19.13,-8.62 29.03,-3.93 5.47,-3.71 12.69,-3.03 18.62,-0.41l-0 0c5.47,2.99 9.61,7.9 13.41,12.6 0.93,1.25 1.29,2.92 -0.01,3.54 -6.13,5.06 -18.88,2.09 -24.66,-1.67 -4.17,-0.34 -3.26,-6.26 -8.07,-2.12 -3.21,3.02 -7.25,4.9 -11.64,6.01 -9.81,3.37 -18.83,2.81 -27.37,-2.44 -1.1,-0.11 -5.6,-2.65 -4,-3.56 1.74,0.47 11.37,-5.06 14.7,-8.02z"/>
          <path id="__xd83d__xdd8d_-Ink_4" class="fil2" d="M169.41 185.81c0.07,-0.54 0.91,-0.57 0.92,0 0.39,11.9 4.26,24.95 10.82,35.15 15.75,25.73 47.89,38.61 78.83,34.18 22.61,-0.31 25.03,-13.12 30.65,-31.02 2.92,-2.4 4.35,-1.54 3.44,1.27 -6.97,21.6 -9.35,33.98 -36.92,33.75 -44.26,6.32 -92.26,-29.88 -87.75,-73.33zm62.53 9.6c7.22,-3.22 15.81,-2.77 21.85,1.69l0.42 0.1c1.06,0.24 2.07,0.42 3.26,0.3 15.96,-8.41 26.62,6.25 34.8,17.23 0.62,0.02 1.12,0.51 0.95,1.07l0.26 0.28c-1.03,2.77 -2.89,5.44 -5.44,7.11 -8.35,11.12 -14.59,7.65 -25.46,3.07 -11.19,-1.68 -11.64,11.52 -27.25,5.47l-0.59 -0.19c-5.13,-1.7 -11.03,-4.27 -14.76,-7.99 -0.12,-0.12 -0,-0.36 0.18,-0.3 8.66,2.61 19.8,11.14 28.61,5.39 2.23,-1.5 4.23,-3.31 6.72,-4.44 14.22,-4.76 19.22,14.04 31.66,-5.48 -10.13,1.77 -21.55,0.01 -29.13,-6.89 -11.32,13.64 -33.36,11.46 -47.37,2.98 -1.92,0.28 -4.75,-1.62 -2.99,-3.43 1.93,-1.53 4.98,-0.93 7.36,-1.77 7.58,-2.7 9.36,-11.29 16.91,-14.22zm25.31 5.7c-8,-5.7 -19.97,-6.65 -27.63,0.06 -4.78,4.81 -7.89,11.7 -15.6,12.97 13.24,7.62 32.27,7.75 42.47,-4.38 0.32,-1.05 1.98,-0.6 2.18,0.31 7.3,5.1 16.64,7.81 25.73,6.24 1.47,-0.24 2.91,-0.58 4.33,-1.02l-1.34 -1.85c-7.14,-9.77 -16.32,-21.14 -29.93,-13.11 -0.31,0.16 -0.44,-0.24 -0.48,-0.45l-0.17 0.12c0.12,0.25 1.12,1.08 0.44,1.09zm32.77 16.96c0.07,0.06 0.12,0.12 0.17,0.19 0.22,-0.12 0.46,-0.23 0.7,-0.35l-0.06 -0.05c-0.26,0.07 -0.52,0.14 -0.8,0.2zm-119.59 -47.04l-0 -0.39c0,-3.93 1.06,1.02 1.53,2 2.04,3.67 3.74,7.3 5.9,10.88 8.66,15.58 10,22.33 27.44,31.2 1.3,1.11 -0.06,3.1 -1.67,2.69 -2.41,-0.61 -4.68,-2.15 -6.78,-3.38 -11.88,-6.13 -16.31,-18.63 -21.64,-29.51 -1.56,-4.31 -5.17,-8.92 -4.78,-13.49z"/>
         </g>
         <g id="accessories_x002f_Glasses">
          <g>
           <path id="__xd83d__xdd8d_-Ink_5" class="fil2" d="M302.91 167.64c-3.88,26.23 -30.94,29.13 -35.74,3.09 0.77,-0.34 1.33,-1 1.21,-2.3 -0.03,-5.67 1.73,-11.67 6.85,-14.83 5.29,-3.26 11.48,-3.58 17.6,-3.5 11.68,-0.28 11.43,9.49 10.09,17.53l0 0zm-39.98 -11.41c-3.67,-0.15 -8.3,-0.03 -11.58,2.21 -0.9,-2.43 -3.25,-5.03 -5.62,-6.42 8.81,0.26 17.87,-0.61 26.75,-1.28 -2.12,1.45 -4.1,3.62 -5.38,6.14 -1.19,-0.64 -2.9,-0.58 -4.16,-0.65l0 0zm-16.16 14.19c-10.16,34.99 -35.53,19.74 -38.3,15.26 -4.99,-7.42 -5.93,-25.46 -1.58,-30.29 6.22,-4.36 15.03,-3.24 22.37,-3.35 13.5,0.18 23.09,4.22 17.5,18.38l0 0zm68.13 -16.1c-2.76,-0.36 -5.71,-0.43 -8.28,0.78 -0.79,-3.36 -3.27,-6.17 -6.07,-7.41 -0.34,-0.43 -0.29,-0.65 -1.45,-0.59 -7.11,-2.14 -15.07,-1.01 -21.91,1.19 -10.8,0.91 -22.12,1.63 -33.01,2.88 -10.2,-4.58 -40.97,-5.25 -42.89,6.04 -2.41,-0.36 -6.5,-2.25 -8.52,0.32 -14.83,-2.51 -30.15,0.98 -45.04,2.54 -3.75,0.69 -5.68,8.13 -1.42,8.03 2.39,-0.65 -0.07,-4.63 3.15,-4.93 14.37,-1.57 28.42,-3.8 42.94,-4.06 -0.51,2.51 9.6,2.67 9.75,1.21 0.02,0.01 0.04,0.02 0.07,0.03 -2.5,9.31 -0.24,22.71 4.27,28.48 6.32,7.56 22.2,9.73 29.24,4.86 9.08,-4.49 18.53,-27.02 15.87,-34.51 4.82,-1.53 9.58,-1.07 14.57,-0.29 -1.14,3.23 -3.12,11.19 -0.28,11.88 -0.52,15.8 13.85,25.66 27.11,19.18 11.47,-5.39 15.48,-22.44 14.08,-32.79 1.43,2.76 13.42,-0.25 7.83,-2.84z"/>
          </g>
         </g>
        </g>
       </g>
      </g>
     </g>
    </g>
   </g>
  </g>
  <path class="fil3" d="M218.62 437.24c-120.74,0 -218.62,-97.88 -218.62,-218.62 0,-120.74 97.88,-218.62 218.62,-218.62 120.74,0 218.62,97.88 218.62,218.62 0,120.74 -97.88,218.62 -218.62,218.62z"/>
 </g>
</svg>
