<?xml version="1.0" encoding="UTF-8"?>
<!DOCTYPE svg PUBLIC "-//W3C//DTD SVG 1.1//EN" "http://www.w3.org/Graphics/SVG/1.1/DTD/svg11.dtd">
<!-- Creator: CorelDRAW -->
<svg xmlns="http://www.w3.org/2000/svg" xml:space="preserve" width="84.6667mm" height="84.6667mm" version="1.1" style="shape-rendering:geometricPrecision; text-rendering:geometricPrecision; image-rendering:optimizeQuality; fill-rule:evenodd; clip-rule:evenodd"
viewBox="0 0 800.38 800.38"
 xmlns:xlink="http://www.w3.org/1999/xlink"
 xmlns:xodm="http://www.corel.com/coreldraw/odm/2003">
 <defs>
  <style type="text/css">
   <![CDATA[
    .fil2 {fill:none}
    .fil1 {fill:black}
    .fil0 {fill:#D97757}
   ]]>
  </style>
   <clipPath id="id0">
    <path d="M400.19 800.38c-221.02,0 -400.19,-179.17 -400.19,-400.19 0,-221.02 179.17,-400.19 400.19,-400.19 221.02,0 400.19,179.17 400.19,400.19 0,221.02 -179.17,400.19 -400.19,400.19z"/>
   </clipPath>
 </defs>
 <g id="Capa_x0020_1">
  <metadata id="CorelCorpID_0Corel-Layer"/>
  <path class="fil0" d="M400.19 800.38c-221.02,0 -400.19,-179.17 -400.19,-400.19 0,-221.02 179.17,-400.19 400.19,-400.19 221.02,0 400.19,179.17 400.19,400.19 0,221.02 -179.17,400.19 -400.19,400.19z"/>
  <g style="clip-path:url(#id0)">
   <g id="_2977477022736">
    <g>
     <g id="Introduction">
      <g id="variations">
       <g id="images">
        <g id="a-person_x002f_bust">
         <g id="body_x002f_Blazer-Black-Tee">
          <path id="_1" class="fil0" d="M680.06 720.53c-12.87,-61.01 -58.53,-108.35 -119.93,-131.94 -11.8,-6.68 -23.24,-35.33 -39.11,-40.58 -2.54,-0.84 1.47,5.85 0,6.25 -5.25,1.42 -11.12,1.57 -16.92,-3.58 -10.35,-9.2 -13.6,-36.09 -19.89,-48.25 -33.19,-64.1 -116.07,-39.02 -127.17,31.84 -7.74,5.05 -18.68,9.49 -27.11,13.56 -8.68,4.19 -16.31,14.33 -25.25,17.96 -7.98,3.24 -21.13,0.94 -29.17,3.77 -36.98,12.98 -68.3,29.35 -92.85,62.53 -5.17,7 -11,15.6 -15.71,22.67 -24.27,27.95 -41.13,59.29 -56.66,92.9 -43.44,98.67 -55.26,207.92 -65.86,314.22 0.24,18.6 -12.1,70.18 6.15,79.1 -1.09,1.13 -0.7,3.41 1.33,3.39 46.27,-0.47 92.43,3.67 137.99,11.73 21.98,3.89 43.84,9.22 66.23,10.09 46.47,-0.32 92.78,-8.11 139.19,-0.74 55.8,0 123.6,-1.63 185.67,-4.01 58.01,-2.23 116.33,2.81 173.63,-7.06 4.53,-0.72 6.75,-6.25 5.8,-10.22 -6.72,-24.5 -10.02,-49.72 -13.79,-74.8 0.75,-16.09 -0.59,-32.88 -6.54,-47.86 -15.54,-101.14 -35.47,-201.62 -60.01,-300.97z"/>
          <path id="__xd83d__xdd8d_-Ink" class="fil1" d="M661.34 853.47c-1.23,5.95 -2.94,11.89 -5.22,17.53 -2.2,5.44 -5.51,10.31 -7.79,15.68 -0.31,0.72 -0.81,1.27 -1.41,1.69l0.19 1.46 0 0 0.17 1.46c1.14,9.86 2.42,19.7 3.52,29.56l0.54 4.93c2.18,20.59 5.62,41.07 8.29,61.6 2.62,20.11 5.28,40.21 8.12,60.29 2.94,20.7 5.93,41.37 9.43,61.98 1.48,8.71 3.02,17.41 4.62,26.1l1.24 6.65c12.76,3.07 16.25,20.86 3.26,27.43 -5.9,2.97 -13.47,2.26 -18.33,-2.41 -5.05,-4.86 -5.26,-13.63 -6.43,-20.22l-1.13 -6.12c-8.45,-46.02 -15.78,-92.57 -19.21,-139.24 -0.88,-12.05 -1.63,-24.11 -2.11,-36.18 -0.46,-11.36 -0.24,-22.71 -0.41,-34.06l-0.06 -3.1c-0.27,-12.11 -0.05,-24.2 0.27,-36.3 0.04,-1.47 0.1,-2.95 0.18,-4.43 -0.43,-0.5 -0.73,-1.09 -0.86,-1.67l-0.17 -0.76c-0.42,-1.96 0.05,-4.25 1.56,-5.65 0.65,-8.25 1.5,-16.49 1.73,-24.73 0.02,-0.68 0.99,-0.66 1.05,0 0.55,7.01 1.64,14.05 2.74,21.07 7.04,-5.66 12.24,-14.99 15.31,-22.81 0.22,-0.57 1.05,-0.36 0.92,0.25zm-166.54 -327.89c1.17,5.34 3.48,10.14 6.57,14.6 1.48,2.13 3.15,4.12 5.17,5.78 1.73,1.42 3.69,2.35 5.53,3.58 2.67,-0.42 5.46,0.59 7.34,2.56l-0.29 -2.88c-0.09,-0.93 1.45,-1.11 1.62,-0.21 8.11,40.93 15.51,81.89 21.92,123.12l2.81 18.21 2.64 17.09c4.39,28.48 8.63,56.96 11.82,85.65 4.26,38.29 7.84,76.68 10.45,115.13 2.62,38.72 4.24,77.46 5.39,116.25 0.29,9.78 0.59,19.55 0.89,29.33l1.98 -11.69c1.98,-11.69 3.92,-23.4 5.58,-35.14 5.96,-42.04 10.73,-84.37 13.06,-126.77 2.13,-38.8 1.42,-78.37 -8.45,-116.17 -2.49,-9.51 -5.53,-18.87 -9.2,-27.99 -3.56,-8.87 -8.42,-17.09 -12.25,-25.83 -4.45,-10.17 -5.79,-19.76 -3.5,-30.71 2,-9.54 5.52,-18.51 6.15,-28.32 1.18,-18.22 -4.75,-35.87 -13.12,-51.82 -2.21,-4.2 -4.54,-8.35 -6.97,-12.46 -7.35,-12.42 -15.65,-24.39 -24.25,-35.87 -0.46,-0.61 0.52,-1.29 1.02,-0.79 7.84,7.75 16.42,15.38 23.48,23.85 3.43,4.12 6.78,8.32 9.95,12.64 34.8,5.82 64.7,27.5 85.14,56.13 23.19,32.49 34.93,71.6 43.61,110.11 9.65,42.8 17.8,85.99 26.47,129 8.98,44.51 17.91,89.01 26.94,133.51 4.49,22.09 8.98,44.18 13.46,66.28 2.27,11.19 4.66,22.35 7.15,33.5 1.28,5.72 2.65,11.42 3.84,17.15 1.33,6.47 0.09,10.6 -4.29,15.36 -1.61,1.76 -4.17,1.74 -6.17,0.8l-0.62 -0.29 -0.61 -0.29c-2.48,-1.22 -4.42,-2.48 -5.96,-5.19 -1.7,-2.98 -1.97,-6.28 -2.55,-9.59 -1.08,-6.1 -2.14,-12.19 -3.22,-18.3 -1.61,-9.13 -3.35,-18.23 -5.13,-27.33l-8.93 -45.48c-2.38,-12.13 -4.76,-24.25 -7.16,-36.37 -8.56,-43.35 -17.13,-86.68 -25.7,-130.02 -8.23,-41.61 -15.51,-83.51 -24.87,-124.88l-0.53 -2.33 -0.54 -2.33c-8.38,-35.66 -20.08,-70.16 -41.31,-100.38 -16.34,-23.24 -39.03,-44 -65.76,-54.5 1.88,2.71 3.69,5.48 5.42,8.29 10.83,17.7 18.74,38.72 16.89,59.8 -0.91,10.3 -4.82,20.42 -4.45,30.8 0.34,9.22 6.05,17.32 9.99,25.35 8.95,18.19 15.42,37.51 19.59,57.34 8.38,39.81 8.35,80.77 5.46,121.19 -3.14,43.93 -9.09,87.85 -15.87,131.35 -3.48,22.31 -8.11,44.44 -11.65,66.72 -1.75,10.98 -4.14,21.94 -6.22,32.87l-0.99 5.22c-0.56,2.9 -1.13,5.79 -1.8,8.64l-0.41 1.71 0 0.31c-0.02,2.11 -0.6,3.85 -1.52,5.24 -1.27,4.07 -2.85,8.04 -4.94,11.86 -1.08,1.95 -2.63,3.04 -4.33,3.44 -1.71,3.91 -5.57,6.91 -10.19,6.89l-60.74 -0.23c-35.28,-0.14 -70.56,-0.37 -105.83,-0.57 -8.9,-0.04 -17.8,-0.21 -26.69,-0.44 -8.34,-0.23 -16.33,-1.23 -24.58,-2.27 -9.31,-1.17 -14.36,-7.76 -12.96,-17.07 0.31,-2.05 0.64,-4.09 0.96,-6.13 -1.85,0.61 -4.06,0.32 -5.56,-1.13l-1.4 -1.37c-1.94,-1.92 -3.68,-3.81 -4.91,-6.37 -1.27,-2.63 -2.3,-5.42 -3.42,-8.11 -2.42,-5.79 -4.77,-11.6 -7.07,-17.43 -4.59,-11.67 -9.18,-23.39 -13.45,-35.18 -8.45,-23.35 -15.92,-47.06 -22.42,-71.03 -11.59,-42.77 -19.98,-86.37 -25.26,-130.35l-1.26 -10.48 -0.37 -3.1c-2.01,-17.05 -3.69,-34.36 -2.89,-51.37 0.49,-10.65 2.14,-21.38 6.12,-31.33 3.67,-9.17 9.34,-17.02 14.73,-25.22l0.62 -0.95 0.62 -0.97c4.71,-7.45 8.46,-15.24 8.65,-24.28 0.19,-9.18 -2.48,-18.11 -5.47,-26.71l-0.74 -2.12 -0.5 -1.4c-6.36,-17.76 -13.6,-35.27 -11.21,-54.6 3.53,-28.46 20.77,-51.41 42.48,-69.1 -19.3,3.82 -38.4,11.37 -55.26,20.95 -19.91,11.32 -37.84,26.26 -53.3,43.11 -29.21,31.86 -50.07,70.08 -67.14,109.55 -17.87,41.3 -31.13,84.58 -41.11,128.43 -10.04,44.1 -16.77,88.9 -21.36,133.88 -2.29,22.39 -4.09,44.83 -5.58,67.28 -0.76,11.5 -1.33,23.03 -2.22,34.51 -0.89,11.48 -1.29,23.13 -4.09,34.3 -1.31,5.21 -10.13,5.73 -11.07,0 -2.1,-12.8 -1.51,-26.05 -0.93,-39.01l0.05 -1.18c0.58,-12.91 1.33,-25.82 2.22,-38.72 1.82,-26.38 4.25,-52.72 7.42,-78.97 11.12,-92.16 31.63,-183.85 71.85,-267.98 18.94,-39.62 43.24,-78.13 77.06,-106.74 16.1,-13.61 34.25,-24.48 53.81,-32.34 17.49,-7.04 35.26,-10.37 53.85,-10.36 9.32,-7.14 19.33,-13.37 29.32,-18.69 0.6,-0.32 1.23,0.46 0.73,0.96 -0.26,0.25 -0.51,0.51 -0.77,0.75 1.13,0.07 2.3,0.6 3.35,1.71 3.67,3.85 6.77,8.67 9.54,13.67 4.22,5.27 8.25,10.72 12.46,15.93 6.74,8.35 13.64,16.58 20.63,24.74 11.73,13.72 23.84,27.18 36.47,40.1l2.11 2.15c6.55,6.64 13.18,14.58 20.92,19.83l0.42 0.28c3.27,2.13 5.58,2.52 8.37,-0.66 2.53,-2.89 4.64,-6.25 6.81,-9.44l0.5 -0.73c11.07,-16.08 21.32,-32.75 30.6,-49.91 4.23,-7.81 8.26,-15.74 12.08,-23.75l1.14 -2.41c2.08,-4.42 4.33,-8.75 6.05,-13.3 0.4,-1.07 0.79,-2.13 1.17,-3.19 -5.84,-3.83 -10.37,-12.13 -12.01,-18.62 -1.71,-6.75 -0.84,-13.67 2.2,-19.84 0.58,-1.16 2.5,-0.87 2.78,0.36zm-288.22 274.09c-0.81,25.64 -1.3,51.32 -2.51,76.94l-0.42 8.75c1.88,2.1 2.98,4.52 2.1,7.84 -0.34,1.27 -1.35,2.42 -2.61,2.85l-0.39 8.13c-1.79,36.59 -3.89,73.11 -7.72,109.62 -4.79,45.68 -10.34,91.29 -15.88,136.89 -0.79,6.46 -5.28,11.58 -12.26,10.63 -7.06,-0.96 -9.93,-7.11 -9,-13.52 3.64,-25.15 7.15,-50.32 10.22,-75.56l3.5 -28.75c4.38,-35.94 8.87,-71.87 14.04,-107.7 2.16,-14.97 4.41,-29.94 6.66,-44.9l-0.79 -1.02c-3.22,-4.18 -6.55,-8.27 -9.84,-12.39 -6.32,-7.94 -12.57,-15.82 -18.36,-24.13 -0.29,-0.42 0.3,-1.03 0.71,-0.71 8.13,6 15.81,12.42 23.55,18.94l6.77 5.73c3.9,-25.86 7.75,-51.72 11.19,-77.65 0.09,-0.65 1.06,-0.69 1.04,0zm116.86 -245.41c-4.89,4.61 -9.89,9.12 -14.81,13.7l-1.8 1.69 -1.8 1.69c-8.66,8.21 -16.95,16.76 -23.86,26.58 -12.69,18.03 -20.24,40 -14.97,62.01 4.38,18.23 14.42,34.75 17.12,53.44 1.35,9.36 0.69,18.77 -2.83,27.61 -3.6,9.02 -9.35,16.75 -14.51,24.88 -11.22,17.68 -12.75,37.09 -11.64,57.58 1.17,21.4 3.63,42.8 6.66,64 6.14,42.95 15.39,85.46 27.64,127.09 6.13,20.85 13.37,41.25 20.58,61.73 3.59,10.2 7.77,20.15 12.08,30.06 2.27,5.21 4.6,10.4 6.97,15.58 -0.87,-7.31 -0.87,-14.82 -1.3,-22.08 -0.61,-10.41 -1.39,-20.8 -2.11,-31.2 -1.45,-21.11 -2.75,-42.23 -3.91,-63.36 -4.11,-75.33 -7.13,-150.73 -6.91,-226.19 0.11,-37.73 0.88,-75.47 2.5,-113.16 0.76,-17.75 2.23,-35.49 3.57,-53.21l0.28 -3.8c1.18,-15.91 2.59,-31.86 5.01,-47.63 -0.72,-1.62 -1.34,-3.25 -1.8,-4.93l-0.16 -0.63 0.12 0.02c-0.11,-0.49 -0.15,-0.98 -0.12,-1.46zm42.27 -64.83c0.1,-0.44 0.72,-0.4 0.83,0 2.75,9.28 1.78,19.48 -0.59,28.82 -1.28,5.06 -3.1,9.96 -5.29,14.7l-0.77 1.66c-1.88,4.03 -4,8.18 -7.67,10.69 -1.53,1.05 -4.27,1.11 -5.79,0l-0.78 -0.59c-0.13,-0.1 -0.26,-0.2 -0.38,-0.31 -1.43,-1.2 -2.13,-3.84 -1.47,-5.58 1.7,-4.5 5.55,-7.8 8.21,-11.81 2.36,-3.56 4.44,-7.32 6.18,-11.23 3.74,-8.45 5.41,-17.42 7.54,-26.34z"/>
         </g>
         <g id="head_x002f_Medium-Bangs-2">
          <path id="__xd83c__xdfa8_-Background_0" class="fil0" d="M584.83 217.71c-2.06,-5.2 -5.7,-11.74 -11.79,-12 -4.71,-14.4 -16.42,-29.07 -32.71,-28.68 -47.81,-48.91 -107.99,-46.6 -170.92,-36.25 -33.2,6.16 -66.9,18.22 -91.67,42.02 -29.65,28.02 -41.2,76.91 -17.98,112.34 -20.07,10.76 -20.46,36.29 -11.88,54.71 -10.32,7.14 -10.94,24.46 0.67,29.91 -0.62,2.53 -0.18,5.15 1,7.4 -5.76,4.8 -13.26,8.34 -19.45,11.38 -2.74,1.35 -4.32,3.54 -4.98,6.02 -20.35,13.36 -71.1,46 -70.49,71.98 -0.3,13.55 9.75,22.47 21.96,26.02 -7.27,14.53 -12.78,31.51 -5.83,47.18 1.92,4.74 16.33,18.66 17.05,18.91 1.27,1.09 21.93,-8.4 31.98,-13.25 1.95,12.67 15.49,19.31 27.17,14.97 11.07,-3.34 17.88,-12.72 24.86,-21.25 9.27,20.23 36.54,20.46 54.17,11.74 15.83,-7.31 27.86,-20.72 34.57,-36.88 35.6,17.43 77.24,22.51 115.91,15.55 2.48,4.39 7.98,7.34 12.87,5.65 20.56,-6.18 43.3,-6.53 60.73,-20.7 36.33,-26.09 39.39,-74.19 36.86,-115.19 -2.25,-40.88 -0.28,-82.1 -7.71,-122.54 3.22,-11.91 8.59,-22.43 13.55,-33.62 5.39,-11.73 5.28,-29.17 -7.96,-35.45z"/>
          <path id="__xd83d__xdd8d_-Ink_1" class="fil1" d="M247.01 391.23c2.14,-0.54 3.29,2.34 1.47,3.5 -11.54,7.34 -23.46,13.9 -34.61,21.89 -10.6,7.59 -20.4,16.25 -29.53,25.55l-1.01 1.04c-8.26,8.5 -17.4,19.31 -17.49,31.84 -0.07,9.74 7.44,20.38 17.91,19.1 3.95,-0.48 7.58,4.53 6.2,8.14l-1.45 3.81c-5.83,15.41 -11.76,32.86 -7.16,49.07l0.17 0.58c1.11,3.71 2.29,6.99 6.59,6.92 4,-0.07 8.16,-1.42 11.9,-2.7 7.76,-2.67 14.8,-7.13 20.77,-12.73 5.28,-4.96 12.03,0.08 11.32,6.37l-0.02 0.2c-0.97,7.07 10.28,10.35 15.39,9.34 10.1,-2 17.3,-12.12 23.04,-19.84 2.76,-3.71 9.45,-5.17 11.88,0 4.8,10.24 14.69,17.89 26.27,18.21 6.01,0.17 11.78,-1.55 16.87,-4.72 2.08,-1.3 3.94,-2.84 5.64,-4.59l0.42 -0.44c2.52,-2.67 4.26,-4.1 7.48,-5.84 3.18,-1.72 7.28,0.41 7.26,4.17 -0.02,4.86 -1.45,8.1 -4.8,11.62 -2.77,2.92 -6.07,5.48 -9.53,7.54 -6.96,4.12 -15.24,6.43 -23.35,6.16 -12.78,-0.42 -24.97,-6.79 -32.88,-16.7 -8.07,9.66 -18.09,18.53 -31.1,18.29 -9.74,-0.18 -18.82,-5.25 -23.17,-13.11 -6.14,4.24 -12.88,7.55 -20.09,9.71l-0.64 0.19c-10.2,2.97 -21.95,4.15 -28.52,-5.98 -6.17,-9.51 -6.63,-22.69 -5.22,-33.57 1.26,-9.72 4.25,-18.94 7.68,-28.04 -9.77,-2.92 -17.35,-12.1 -19.95,-21.99 -3.94,-14.96 3.7,-29.47 13.15,-40.59 10.26,-12.07 23.18,-22.29 36.19,-31.23 12.98,-8.91 27.52,-17.29 42.9,-21.15zm333.74 -117.02c0.03,-0.41 0.71,-0.56 0.77,-0.1 4.48,32.54 7.08,65.02 9.23,97.79 1.09,16.6 2.33,33.18 3.68,49.77 1.3,15.9 3.46,32.22 2.97,48.18 -0.76,25 -12.9,45.32 -32.8,59.95 -19.06,14.02 -42.71,20.95 -65.92,23.88 -13.47,1.7 -27.14,1.78 -40.63,0.18 -7.01,-0.83 -14,-1.93 -20.87,-3.59l-2.97 -0.74c-5.41,-1.38 -11.44,-3.25 -12.21,-9.66 -0.38,-3.1 1.27,-5.39 3.93,-6.95 3.47,-2.03 7.44,-0.84 11.02,0.09 6.02,1.56 12.11,2.9 18.26,3.82 13.22,1.99 26.81,2.11 40.09,0.73 22.35,-2.32 45.92,-9.57 63.15,-24.54 7.49,-6.51 14,-14.44 17.43,-23.86 4.4,-12.11 3.75,-25.32 3.6,-38 -0.34,-29.49 -0.04,-58.98 -0.45,-88.47 -0.41,-29.58 -0.05,-58.93 1.7,-88.47zm-224.74 -137.81c26.11,-6.74 52.62,-8.49 79.44,-6.46 25.3,1.91 54.11,7.57 74.77,23.14 1,0.75 0.4,2.18 -0.84,1.99 -13.81,-2.2 -27.28,-6.21 -41.03,-8.86 -13.23,-2.55 -26.7,-4.46 -40.17,-4.91 -45.56,-1.5 -96.25,8.82 -132.98,37.24 -17.22,13.32 -30.37,31.24 -35.6,52.55 -5.37,21.86 -2.46,45.5 8.31,65.28 1.55,2.85 0.91,7.35 -2.32,8.87 -9.82,4.6 -16.82,14.79 -16.66,25.79 0.07,5.33 1.91,10.45 4.86,14.86 3.12,4.66 7.88,7.92 11.37,12.28 1.38,1.72 1.43,4.08 0.34,5.66 2.04,0.89 4.25,1.38 6.26,2.43 1.7,0.9 1.75,3.7 0,4.58 -4.43,2.23 -9.23,-0.14 -12.22,-3.74 -0.53,-0.64 -1,-1.31 -1.42,-1.99 -3.58,-0.76 -6.79,-2.56 -9.6,-5.02 -5.34,3.2 -6.07,10.32 -1.48,15.77 2.34,2.78 5.67,4.49 9.04,5.73l0.4 0.15c3.28,1.16 6.27,1.81 8.4,4.43 1.4,-2.92 3.01,-5.68 4.81,-8.2 6.53,-9.14 16.56,-17.24 28.47,-16.21 9.33,0.8 17.41,7.48 19.32,16.7 0.14,0.68 -0.89,1.21 -1.19,0.5 -4.47,-10.44 -18.63,-10.82 -27.07,-5.38 -9.92,6.4 -15.34,18.45 -17.51,29.68 -2.14,11.06 -0.9,24.51 7.37,32.93 3.39,3.44 7.99,5.82 12.8,6.45 2.35,0.31 4.42,0.01 6.67,-0.45l1.49 -0.31c1.03,-0.21 2.06,-0.39 3.14,-0.29l1.61 0.22 0 0 0.92 0.43c0.8,0.36 0.72,0.26 -0.22,-0.29 2.74,-0.23 4.16,1.8 4.31,4.03 0.09,0.06 0.17,0.12 0.24,0.2 10.41,12.74 18.14,27.4 29.19,39.72l3.23 3.61c8.31,9.25 17.81,19.28 29.1,24.08l1.34 0.56c3.29,1.39 6.59,3.29 7,7.25 0.38,3.55 -2.42,6.22 -5.65,7.05 -7.34,1.88 -15.71,-4.64 -21.09,-8.93 -11.56,-9.21 -21.28,-20.95 -29.31,-33.3l-0.79 -1.23c-6.6,-10.31 -12.8,-22.07 -14.73,-34.3l-0.35 0.56c-0.03,0.04 -0.05,0.07 -0.06,0.09 -0.39,0.53 -0.83,0.99 -1.33,1.42 -1.35,1.17 -3,1.85 -4.71,2.31 -3.21,0.87 -6.73,1.04 -10.03,0.7 -6.71,-0.69 -12.97,-3.24 -18.28,-7.4 -16.14,-12.66 -18.05,-36.23 -11.52,-55.34 -5.36,1.28 -11.46,-2.33 -15.64,-5.42 -4.8,-3.54 -8.75,-8.66 -9.7,-14.69 -0.94,-5.97 2.87,-13.89 8.52,-16.19 -5.86,-7.04 -9.27,-17.03 -9.62,-25.03 -0.61,-13.91 6.78,-27.06 18.12,-34.65 -10.67,-22.87 -12.72,-49.4 -5.54,-73.69 14.25,-48.19 62,-75.13 107.78,-86.95zm-40.64 366.12l0.13 -0.42c1.14,-3.73 2.61,-11.14 8.17,-8.32 5.32,2.7 1.92,10.67 0.06,14.56 -2.23,4.65 -6.07,8.37 -11.23,9.37 -4.2,0.81 -8.81,-0.23 -11.74,-3.48 -0.86,-0.94 -1.34,-1.98 -1.85,-3.13 -0.2,-0.44 -0.29,-0.75 -0.32,-0.95 -0.05,0.22 -0.19,0.54 -0.54,0.93 -2.34,2.56 -4.56,5.54 -6.26,8.57 -0.4,0.72 -1.67,0.21 -1.35,-0.57 1.98,-4.84 1.65,-12.34 6.06,-15.84 3.89,-3.09 7.55,-0.66 9.6,2.94l0.1 0.19c3.01,5.46 7.8,0.28 9.15,-3.85zm-42.32 -17.5l0.41 -0.56c4.16,-5.69 11.17,-12.53 18.19,-7.24 2.23,1.68 2.32,4.49 0,6.16l-0.88 0.63c-3.07,2.17 -6.12,4.23 -8.37,7.35 -2.45,3.39 -4.65,6.98 -7.94,9.64 -5.82,4.7 -15.22,5.63 -20.27,-0.71l-0.5 -0.63c-0.42,-0.54 -0.91,-1.2 -1.3,-1.85l-0.31 0.42c-0.03,0.04 -0.06,0.08 -0.09,0.12l-0.07 0.11c-2.08,3.32 -4.7,6.05 -7.96,8.21 -6.21,4.1 -13.2,4.67 -20.22,2.5 -0.69,-0.21 -0.5,-1.13 0.16,-1.2 8.32,-0.78 16.43,-6.69 19.81,-14.3l0.38 -0.86c1.37,-3.03 2.9,-5.91 6.29,-7.1 3.29,-1.16 6.75,0.06 9.01,2.56 1.89,2.08 2.37,6.22 5.78,5.31 3.73,-1 5.83,-5.67 7.87,-8.55zm-23.83 -50.58c1.84,-1.4 4.73,0.1 5.24,2.13 2.3,9.19 -7.25,20.02 -16.43,20.3 -2.36,0.07 -4.63,-0.5 -6.73,-1.59 -1.62,-0.85 -3.54,-3.01 -5.33,-3.37 -2.3,-0.47 -4.34,2.6 -5.96,4.17 -2.01,1.95 -4,3.77 -6.25,5.43 -0.9,0.66 -2.29,-0.45 -1.91,-1.47l0.76 -2.03c2.76,-7.23 7.51,-17.78 16.39,-14.78 4.35,1.47 7.63,6.43 12.22,2.5 3.67,-3.14 4.01,-8.27 7.99,-11.29zm39.21 -37c8.29,-9.51 27.76,-4.49 31.45,7.09 0.81,2.56 -0.04,5.88 -2.03,7.69 -2.63,2.38 -6.38,3.1 -9.57,1.23 -2.75,-1.61 -3.87,-4.24 -5.89,-6.5 -2.96,-3.31 -6.99,-5.14 -11.14,-6.46 -1.04,0.55 -2,1.26 -2.87,2.13 -0.44,0.44 -1.28,-0.16 -0.89,-0.69 0.53,-0.71 1.19,-1.38 1.93,-1.99l-0.36 -0.1 0 0c-1.09,-0.31 -1.33,-1.6 -0.63,-2.4zm53.84 -105.04c1.86,0 4.02,1.75 3.78,3.78l-0.07 0.57c-0.54,3.88 -1.78,6.07 -5.66,7.87 -3.29,1.53 -6.75,2.37 -10.36,2.7 -1.37,0.13 -2.81,0.13 -4.28,0.03l-0.31 1.78c-0.61,3.56 -1.18,7.12 -1.29,10.75 -0.2,6.73 2.31,12.27 5,18.27 5.17,11.53 5.75,23.05 0.12,34.56 -0.82,1.68 -3.15,3.06 -5.03,2.89 -2.44,-0.22 -3.61,-0.93 -5.03,-2.89 -1.19,-1.65 -0.92,-3.97 -0.09,-5.69l0.09 -0.19c2.83,-5.49 3.73,-11.69 2.28,-17.73 -1.36,-5.67 -4.44,-10.77 -5.81,-16.43 -2.24,-9.21 0.14,-18.35 4.81,-26.26 -3.52,-1.01 -6.78,-2.82 -8.95,-5.58l0.01 -0 0 0c-0.83,-0.89 -0.38,-2.74 1.08,-2.62l1.65 0.13c4.71,0.39 9.04,0.8 13.8,-0.51 2.44,-0.67 4.55,-1.8 6.64,-3.16l0.45 -0.3c2.62,-1.74 4.08,-1.99 7.16,-1.98zm11.27 -68.09c11.8,-0.67 21.87,7.12 26.77,17.49 5.32,11.26 3.09,24.18 -1.61,35.26l-1.33 3.1c-2.34,5.37 -5.4,11.76 -10.18,14.64 -5.37,3.24 -10.01,-0.52 -8.43,-6.49 0.95,-3.55 3.5,-6.29 5.57,-9.23 1.93,-2.74 3.73,-5.58 5.31,-8.53 3.09,-5.8 5.4,-12.26 5.37,-18.91 -0.04,-12.13 -8.05,-26.03 -21.47,-25.85 -0.96,0.01 -0.94,-1.43 0,-1.48zm59.68 -19.57c-0.73,-0.56 -0.08,-1.8 0.74,-1.28 13.68,8.71 23.9,25.06 25.96,41.13 1.14,8.91 0.27,18.44 -3.53,26.67 -2.18,4.72 -5.91,9.23 -11.14,10.52 -4.8,1.19 -9.75,-1.56 -11.24,-6.24 -0.58,-1.82 0.42,-3.72 1.92,-4.72 4.87,-3.22 8.79,-7.28 11.08,-12.75 2.39,-5.68 3.34,-11.72 3.37,-17.85 0.07,-14.36 -5.66,-26.73 -17.17,-35.48zm167.16 6.22c-0.63,-0.7 0.16,-1.74 1,-1.3 9.89,5.21 16.18,15.17 17.98,26.09 1.76,10.69 -0.61,25.24 -8.88,32.97 -4.67,4.36 -13.03,-1.44 -9.15,-7.06 2.74,-3.97 5.69,-7.23 7.26,-11.91 1.4,-4.18 1.89,-8.4 1.82,-12.79 -0.17,-9.58 -3.59,-18.86 -10.03,-26.01zm-120.95 -13.39c16.9,-0.8 27.14,18.5 29.49,32.88 1.45,8.89 0.36,18.04 -4.55,25.75l-0.29 0.45c-4.05,6.16 -11.41,13.25 -19.34,10.33 -3.36,-1.23 -4.25,-4.83 -1.99,-7.56 3.45,-4.18 8.78,-5.88 12.03,-10.34 3.64,-5 4.83,-11.27 4.62,-17.35l-0.03 -0.67c-0.56,-11.19 -5.9,-32.66 -19.94,-32.28 -0.79,0.02 -0.78,-1.18 0,-1.22zm52.87 -3.21c16.35,-2.09 26.3,17.15 29.37,30.4 1.92,8.29 2.34,17.53 -0.12,25.75l-0.18 0.59c-2,6.14 -7.89,16.65 -15.58,13.52 -2.11,-0.86 -4.26,-3.2 -3.25,-5.72 1.29,-3.23 3.15,-4.06 5.63,-6.13 1.91,-1.59 3.24,-3.87 4.22,-6.12 2.61,-5.99 3.2,-12.99 2.84,-19.44l-0.05 -0.76c-0.92,-12.6 -7.76,-31.39 -22.89,-31.05 -0.69,0.02 -0.64,-0.96 0,-1.04zm29.93 -18.09c9.1,-3.47 16.55,5.24 21.78,11.45 6.55,7.78 12.5,16.17 15.86,25.85 2.99,8.63 3.52,18.23 0.82,27.02 -1.34,4.35 -3.41,8.39 -6.25,11.94l-0.36 0.45c-2.95,3.6 -5.81,5.82 -10.64,4.53 -1.97,-0.53 -2.8,-2.47 -2.46,-4.34 0.73,-3.98 2.78,-5.01 5.43,-7.78 2.34,-2.45 4.08,-5.46 5.24,-8.63 2.41,-6.54 2.53,-13.62 0.92,-20.36 -1.81,-7.54 -5.37,-14.51 -9.48,-21.03l-0.89 -1.4c-4.36,-6.9 -10.58,-17.53 -19.79,-16.41 -0.79,0.1 -0.8,-1.04 -0.17,-1.28z"/>
         </g>
         <g id="face_x002f_Cute">
          <path id="__xd83d__xdd8d_-Ink_2" class="fil1" d="M518.67 446.75c3.18,-5.62 12.68,-4.7 14.13,1.85 2.94,13.28 -12.89,25.54 -24.91,25.85 -11.95,0.3 -25.35,-9.87 -23.62,-22.72 0.43,-3.18 4.67,-2.79 6.12,-0.8l0.56 0.77c3.93,5.28 9.11,10.75 16.41,9.46 3.02,-0.53 5.77,-2.42 7.59,-4.85 2.2,-2.93 1.96,-6.44 3.72,-9.55zm-75.97 -97.15c1.62,-0.45 3.25,-0.27 4.69,0.34 3.2,0.59 5.88,3.26 6.82,6.31 0.07,0.26 0.16,0.52 0.25,0.78l0.14 0.38 -0.38 -0.98c0.18,0.96 0.96,1.97 1.24,2.94 0.35,1.19 0.43,2.54 0.31,3.85 1.02,0.01 2.04,0.05 3.05,0.13l0.98 0.09c5.49,0.51 11.52,1.45 14.78,6.2 1.83,2.67 0.11,7.47 -3.25,7.99 -5.17,0.79 -9.63,-2.07 -14.78,-2.65 -4.87,-0.54 -9.97,-0.23 -14.78,0.65 -9.93,1.82 -19.05,5.84 -28.73,8.37l-1.32 0.33 0 0 0 -0.01c-1.66,0.4 -3.54,-1.91 -1.9,-3.25 7.75,-6.37 17.68,-11.53 27.45,-14.68 -1.42,-2.27 -1.87,-5.25 -0.89,-7.68 0.15,-0.5 0.34,-1 0.54,-1.49l0.41 -1 0 0c0.04,-0.47 0.13,-0.94 0.26,-1.4l0.02 -0.14 0 0 0.01 0.01 0 0c0.73,-2.37 2.63,-4.41 5.06,-5.09zm98.9 0.37c2.12,-2.12 5.1,-1.81 7.31,-0.14l0.29 0.23 0 0c2.09,0.93 3.81,2.95 4.94,4.83 1.18,1.95 1.96,3.93 1.99,6.08 5.13,0.02 10.05,1.56 13.82,5.7 1.22,1.34 2.05,3.4 1.38,5.22l-0.4 1.08 0 0c-1.26,3.43 -6.95,5.4 -8.89,1.37l-0.09 -0.2c-2.05,-4.78 -9.94,-4.28 -14.13,-3.79 -2.92,0.34 -5.81,1.07 -8.63,1.88 -0.99,0.29 -1.98,0.6 -2.96,0.92l-0.98 0.32c-0.53,0.17 -3.26,1.65 -1.56,1.3 0.46,-0.09 0.8,0.57 0.33,0.8 -2.03,0.97 -4.19,-0.96 -4.05,-3.14 0.24,-3.78 6.24,-5.86 9.13,-7.16l0.17 -0.08c1.11,-0.51 2.27,-1 3.46,-1.46 -0.67,-1 -1.23,-2.12 -1.69,-3.31 -0.44,-1.13 -0.73,-2.22 -0.89,-3.42 -0.16,-0.59 -0.16,-1.17 0,-1.76l0.03 -0.17 0 0c-0.08,-0.39 -0.12,-0.79 -0.11,-1.19l-0.02 -0.16 0.02 0c0.06,-1.41 0.62,-2.83 1.53,-3.75zm-33.88 40.27c8.15,2.52 21.58,9.38 17.34,19.96 -5.93,9.72 -21.65,2.58 -29.26,-0.56 -6.84,-2.27 -10.41,7.33 -3.79,10.22 54.68,21.64 54.48,-35.47 17.7,-34.63 -4.05,0.09 -4.18,4.18 -1.98,5.01zm-72.34 -74.47l1.39 -0.4c7.22,-2.09 14.59,-5.71 21,-0.07 2.52,2.21 3.04,6.81 1.23,9.58 -4.1,6.29 -10.19,5.33 -16.81,5.87 -5.05,0.41 -10.02,1.89 -14.72,3.74 -3.85,1.51 -7.42,3.65 -10.79,6.03 -3.31,2.34 -5.57,5.99 -8.97,8.1 -1.25,0.77 -2.68,-0.02 -3.13,-1.27 -1.58,-4.44 1.09,-9.97 3.36,-13.75 2.76,-4.61 6.96,-8.39 11.48,-11.24 4.94,-3.13 10.41,-4.93 15.96,-6.57l0 0zm105.2 -4.78c12.2,-0 23.95,6.79 30.77,16.74 2.32,3.38 0.62,8.39 -2.71,10.34 -3.74,2.19 -7.73,0.61 -10.19,-2.52l-0.15 -0.19c-3.92,-5.22 -8.96,-9.32 -14.94,-12 -2.92,-1.31 -6.14,-2.36 -9.3,-2.9l-1.02 -0.18c-1.43,-0.24 -3.09,-0.47 -4.38,-0.24 -0.69,0.09 -1.33,0.32 -1.91,0.67 0.28,0.62 -0.45,1.36 -1.12,0.99 -3.03,-1.67 -2.66,-4.64 -0.16,-6.95 3.54,-3.27 10.53,-3.76 15.11,-3.76z"/>
         </g>
         <g id="facial-hair_x002f_Goatee-1">
          <path id="__xd83d__xdd8d_-Ink_3" class="fil1" d="M513.46 426.33c-10.31,-4.65 -28.83,-0.59 -35.56,1.02 -15.63,3.75 -31.35,11.85 -36.21,24.55 -5.48,14.31 5.45,18.81 7.06,18.08 10.82,0.76 23.71,-6.04 35.05,-7.8 9.21,-1.44 18.92,-2.69 27.54,-7.59 6.3,3.47 20.52,5.34 32,8.37 9.78,2.58 14.01,8.17 23.07,6.98 10.86,-1.43 6.42,-24.28 -5.69,-33.54 -13.25,-10.13 -35.66,-14.24 -47.25,-10.08zm20.42 97.72c-9.02,2.2 -9.63,-17.58 -10.64,-24.57 -0.79,-5.46 -5.24,-19.54 -16.54,-18.94 -11.29,0.61 -15.54,12.41 -14.96,19.75 0.37,4.76 4.76,28.86 -9.24,31.91 -8.92,-0.03 -19.24,-0.63 -28.62,-2.36 -11.04,-2.5 -25.4,-11.26 -29.19,5.99 -1.37,6.21 47.27,24.65 68.84,26.32 21.89,4.44 47.49,-2.39 63.07,-19.13 3.54,-3.81 13.53,-19.63 14.24,-23.5 1.49,-8.14 -1.97,-13.38 -12.04,-10.51 -7.11,3.8 -19.14,13.64 -24.94,15.06z"/>
         </g>
         <g id="accessories_x002f__x002a_-None">
         </g>
        </g>
       </g>
      </g>
     </g>
    </g>
   </g>
  </g>
  <path class="fil2" d="M400.19 800.38c-221.02,0 -400.19,-179.17 -400.19,-400.19 0,-221.02 179.17,-400.19 400.19,-400.19 221.02,0 400.19,179.17 400.19,400.19 0,221.02 -179.17,400.19 -400.19,400.19z"/>
 </g>
</svg>
