<?xml version="1.0" encoding="UTF-8"?>
<!DOCTYPE svg PUBLIC "-//W3C//DTD SVG 1.1//EN" "http://www.w3.org/Graphics/SVG/1.1/DTD/svg11.dtd">
<!-- Creator: CorelDRAW -->
<svg xmlns="http://www.w3.org/2000/svg" xml:space="preserve" width="84.6667mm" height="84.6667mm" version="1.1" style="shape-rendering:geometricPrecision; text-rendering:geometricPrecision; image-rendering:optimizeQuality; fill-rule:evenodd; clip-rule:evenodd"
viewBox="0 0 493.18 493.18"
 xmlns:xlink="http://www.w3.org/1999/xlink"
 xmlns:xodm="http://www.corel.com/coreldraw/odm/2003">
 <defs>
  <style type="text/css">
   <![CDATA[
    .fil3 {fill:none}
    .fil1 {fill:black}
    .fil2 {fill:#262624}
    .fil0 {fill:#D97757}
   ]]>
  </style>
   <clipPath id="id0">
    <path d="M246.59 493.18c-136.19,0 -246.59,-110.4 -246.59,-246.59 0,-136.19 110.4,-246.59 246.59,-246.59 136.19,0 246.59,110.4 246.59,246.59 0,136.19 -110.4,246.59 -246.59,246.59z"/>
   </clipPath>
 </defs>
 <g id="Capa_x0020_1">
  <metadata id="CorelCorpID_0Corel-Layer"/>
  <path class="fil0" d="M246.59 493.18c-136.19,0 -246.59,-110.4 -246.59,-246.59 0,-136.19 110.4,-246.59 246.59,-246.59 136.19,0 246.59,110.4 246.59,246.59 0,136.19 -110.4,246.59 -246.59,246.59z"/>
  <g style="clip-path:url(#id0)">
   <g id="_2977779429280">
    <g>
     <g id="Introduction">
      <g id="variations">
       <g id="images">
        <g id="a-person_x002f_bust">
         <g id="body_x002f_Shirt-and-Coat">
          <path id="_1" class="fil0" d="M418.03 621.09c-0.72,-13.41 -1.61,-26.8 -2.67,-40.19 -2.11,-26.66 -4.88,-53.35 -9.49,-79.7 -4.54,-26 -10.9,-51.29 -20.07,-76.07 -4.25,-11.5 -8.86,-21.3 -15.53,-31.64 -6.32,-9.77 -14.37,-16.39 -24.41,-22.29 -9.05,-5.31 -19.56,-14.54 -28.23,-20.49 -3.62,-2.48 -11.07,-2.32 -13.56,-5.99 -3.25,-4.81 -1.14,-12.18 -4.42,-16.98 -3.75,-5.48 -9,-9.75 -14.92,-12.84 -6.46,-4.38 -14.07,-6.36 -21.71,-6.09 -11.25,-0.68 -22.59,2.9 -29.81,12.07 -3.61,4.57 -5.71,9.85 -6,15.69 -0.08,1.52 0.41,2.72 1.22,3.58 -0.48,0.64 -0.95,1.27 -1.42,1.92 -1.48,-2.19 -4.93,-3.35 -7.23,-1.7 -7.53,5.41 -15.67,9.71 -24.26,12.86 -2.01,-0.95 -4.44,-0.51 -6.17,1.04 -0.7,0.63 -1.44,1.17 -2.21,1.63 -3.19,0.86 -6.42,1.58 -9.7,2.14 -1.03,0.17 -1.9,0.76 -2.56,1.54 -0.98,-0.92 -2.32,-1.35 -3.82,-0.78 -17.34,6.61 -33.71,16.88 -46.16,30.8 -13.79,15.42 -21.03,34.59 -26.54,54.24 -5.97,21.27 -9.78,43.07 -12.99,64.9 -3.25,22.12 -6.44,44.33 -8.68,66.58 -1.26,12.52 -1.74,25.16 -1.17,37.74 0.28,6.29 0.86,12.55 1.77,18.78 0.21,1.46 0.44,3.13 0.8,4.81 -1.09,-0.21 -2.39,0.71 -2.17,2.19 1.54,10.29 13.97,13.29 22.55,14.47 14.03,1.94 28.13,3.01 42.29,3.09 13.92,0.08 27.83,-0.81 41.72,-1.61 14.24,-0.82 28.48,-1.64 42.72,-2.48 57.05,-3.35 114.1,-6.66 171.15,-10 5.21,-0.31 11.16,-0.72 15.63,-3.74 6.12,-4.15 6.43,-10.73 6.07,-17.47l0 0z"/>
          <path id="__xd83d__xdd8d_-Ink" class="fil1" d="M139.93 506.01c-0.2,-0.37 0.26,-0.7 0.57,-0.44 6.93,6.08 10.55,15.84 11.31,24.87 0.81,9.57 -0.34,19.48 -0.77,29.05 -0.49,10.66 -0.92,21.32 -1.51,31.97 -0.6,10.81 -1.25,21.61 -1.81,32.42l-1.25 24.31 0 0c-0.13,2.59 0.16,5.78 -0.84,8.2 -1.54,3.75 -6.12,3.17 -7.08,0.04l-0.03 -0.1 -0.09 0.07c-0.85,-2.82 -0.21,-6.18 -0.07,-9.1l1.31 -26.56 0 0c0.93,-18.78 1.75,-37.55 2.75,-56.33l0.34 -6.26c0.46,-8.42 0.82,-16.83 1.11,-25.25l0.09 -2.81c0.27,-8.45 0.06,-16.44 -4.02,-24.07zm167.89 -155.87c3.86,-0.37 6.77,0.91 10.27,2.26 1.53,0.59 2.97,1.27 4.44,1.97 1.83,0.88 3.01,2.43 4.14,4.08l0.6 0.89c4.7,6.89 7.86,14.83 11.43,22.33 4.17,8.77 8.39,17.53 12.47,26.34l2.02 4.34c1.01,2.17 2.01,4.34 3,6.52l1.71 3.79c1.72,3.85 3.26,7.92 0.81,11.88 -2.28,3.69 -6.31,6.55 -9.51,9.4 -2.67,2.38 -5.33,4.76 -8,7.14 5.51,5.52 9.21,12.48 11.39,19.93 3.09,-1.29 6.86,-1.54 10.06,-2.09 4.47,-0.78 5.02,6 0.8,5.91 -3.12,-0.06 -6.78,0.26 -9.97,-0.4 0.56,2.45 0.96,4.94 1.22,7.43 1.34,13.07 -1.59,26.22 -4.66,38.87l-0.25 1.04c-3.33,13.69 -6.48,27.42 -9.3,41.22 -2.83,13.83 -5.37,27.73 -7.63,41.67 -2.3,14.19 -3.92,28.45 -5.67,42.72 -0.26,2.16 -1.62,4.01 -4.01,4.01 -1.99,0 -4.26,-1.85 -4.01,-4.01 1.8,-15.53 4.36,-30.98 6.9,-46.41 4.38,-26.56 9.89,-52.9 16.22,-79.06l1.11 -4.56c2.85,-11.82 5.44,-23.99 4.01,-36.18 -1.16,-9.92 -5.31,-20.51 -13.51,-26.67l-0.25 -0.19c-1.92,-1.4 -2.65,-4.09 -0.77,-5.94 1.2,-1.18 2.4,-2.35 3.6,-3.53l7.22 -7.05 1.45 -1.42c1.21,-1.19 2.43,-2.36 3.69,-3.5 0.76,-0.69 2.82,-2.01 2.97,-3.14 0.1,-0.74 -0.78,-2.04 -1.13,-2.73l-1.63 -3.29 0 0c-0.92,-1.88 -1.82,-3.76 -2.72,-5.65 -1.87,-3.91 -3.77,-7.8 -5.6,-11.73l-11 -23.58 0 0c-3.1,-6.65 -5.87,-13.67 -9.92,-19.82l-0.8 -1.2c-0.67,-1.01 -1.26,-1.98 -1.68,-3.22 -0.41,-1.19 -0.91,-2.49 -1.66,-3.51 -1.76,-2.38 -5.12,-3.73 -7.93,-4.23 -0.41,-0.07 -0.26,-0.63 0.09,-0.67zm-84.6 -6.19c0.24,0 0.28,0.35 0.06,0.42 -3.39,1.02 -6.63,2.66 -9.27,5.04 -1.26,1.14 -2.54,2.43 -3.32,3.96 -0.3,0.59 -0.46,1.2 -0.59,1.85l-0.04 0.21c-0.2,1.16 -0.49,1.8 -1.08,2.73l-0.1 0.16c-3.36,5.19 -5.71,10.95 -7.87,16.72l-4.69 12.58 0 0 -4.68 12.58c-1.51,4.05 -3.02,8.11 -4.53,12.17 -0.83,2.24 -1.69,4.47 -2.55,6.7 -0.37,0.97 -0.77,1.93 -1.11,2.9 -0.05,0.13 -0.2,0.94 -0.31,1.13l0.04 0.07 0 0c0.94,1.59 3.46,2.92 4.89,4.07l4.92 3.98 0 0c3.51,2.84 7.1,5.59 10.5,8.56 2.14,1.86 0.81,5.19 -1.58,5.97 -3.99,1.3 -7.9,2.86 -11.84,4.33 -1.59,0.59 -3.24,1.11 -4.81,1.77l-0.96 0.41c-0.37,0.17 -0.19,0.17 -0.18,0.86 0.02,0.72 0.22,1.48 0.34,2.19 1.33,8.01 2.73,16.01 4.21,24 5.24,28.24 11.51,56.27 18.65,84.09 3.61,14.05 7.48,28.03 11.17,42.05 3.68,13.99 8.52,27.78 13.14,41.48 1.3,3.86 -4.82,5.53 -6.09,1.68 -5.33,-16.11 -10.2,-32.37 -15.23,-48.57 -8.94,-28.79 -15.98,-58.21 -22.21,-87.7 -3.09,-14.62 -5.91,-29.29 -8.47,-44.01 -0.48,-2.79 -0.96,-5.57 -1.42,-8.36l-0.68 -4.1c-0.46,-2.92 -0.73,-5.97 1.54,-8.29 2.22,-2.26 6.03,-3.06 8.95,-4.12l0.21 -0.08c1.86,-0.69 3.73,-1.36 5.59,-2.05 -2.75,-2.16 -5.46,-4.37 -8.2,-6.53 -2.21,-1.74 -4.45,-3.45 -6.63,-5.24 -1.8,-1.47 -3.26,-3.36 -3.45,-5.75 -0.19,-2.45 0.86,-4.71 1.7,-6.96l0.08 -0.22c0.83,-2.24 1.66,-4.48 2.51,-6.71l5.28 -13.81 0 0c3.35,-8.77 6.57,-17.62 10.09,-26.33 1.4,-3.44 2.92,-6.84 4.71,-10.09 0.87,-1.57 1.8,-3.11 2.81,-4.59 1.13,-1.66 2.16,-2.47 3.91,-3.39 2.8,-1.47 5,-3.92 7.82,-5.44 2.76,-1.48 5.61,-2.28 8.74,-2.31zm9.1 -15.65c0.11,-0.18 0.39,-0.1 0.39,0.11 0.07,4.36 -0.96,8.82 -1.6,13.13 -0.64,4.33 -0.85,8.89 -1.77,13.18 -0.02,0.2 -0.06,0.4 -0.11,0.59l-0.04 0.15 0 0c-0.39,1.2 -1.41,2.22 -2.65,2.53 0.39,2.17 0.76,4.35 1.07,6.54 0.53,3.76 1.02,7.53 1.5,11.3l0.57 4.52c0.54,4.26 1.07,8.53 1.59,12.79 1.32,0.55 2.67,1.01 4.06,1.41 3.19,0.91 6.45,1.28 9.74,1.61 6.7,0.66 13.44,0.96 20.16,1.33l1.44 0.08c7.55,0.43 15.15,0.51 22.69,-0.27 3.74,-0.38 7.44,-1.03 11.09,-1.94 1.85,-0.46 3.65,-1.16 5.5,-1.61 0.61,-0.15 1.16,-0.5 1.78,-0.87 0.27,-0.35 0.65,-0.61 1.15,-0.71l0.14 -0.02 0 0 0.13 -0.02 0.05 -0.02 -0 0.01c0.38,-0.05 0.74,-0.05 1.08,-0 0.13,-3.33 0.28,-6.65 0.46,-9.98 0.49,-8.93 1.85,-18.24 0.04,-27.1 -0.06,-0.3 0.34,-0.4 0.45,-0.12 3.55,9.37 3.16,19.62 3.33,29.48 0.17,9.64 0.07,19.3 0.02,28.94 0.69,0.29 1.31,0.69 1.79,1.25 0.98,1.12 1.25,3.06 0,4.14 -0.56,0.48 -1.17,0.81 -1.82,1.04 -0.03,8.38 -0.09,16.76 -0.18,25.14 1.59,1.23 1.74,4.15 -0.06,5.37 -0.3,27.14 -0.79,54.28 -1.2,81.42l-0.86 56.93 0 0c-0.11,7.59 -0.3,15.17 -0.37,22.76l0.05 0.02 0 0 0.19 0.09c0.32,0.15 0.79,0.39 0.89,0.64 0.03,0.07 0.03,0.11 0.03,0.14 0.52,0.07 1.04,0.32 1.49,0.75 1.11,1.05 0.88,2.64 0,3.71l-0.24 0.29 0 0c-0.55,0.67 -1.59,0.92 -2.45,0.79 0.01,4.73 0.04,9.47 0.02,14.2 -0,1.45 -0.03,2.89 -0.05,4.34l-0.06 3.47c-0.04,1.98 -0.21,4.49 -2.24,5.38 -2.29,1 -4.33,0.18 -5.26,-2.14 -0.25,-0.63 -0.2,-1.21 -0.11,-1.84 -0.03,-0.93 -0.17,-2.02 -0.16,-2.88l0.08 -3.61 0 0c0.01,-0.56 0.03,-1.11 0.05,-1.67l-0.07 0.01 0 0c-8.12,0.39 -16.3,0.2 -24.43,0.2l-3.62 0.01c-3.02,0 -6.04,-0.01 -9.06,-0.13l-1.13 -0.05c-2.26,-0.11 -4.63,-0.14 -6.97,-0.34 0.3,2.4 0.58,4.81 0.82,7.21 0.24,2.28 -2.12,4.22 -4.22,4.22 -2.49,0 -3.92,-1.96 -4.22,-4.22 -1.41,-10.66 -1.99,-21.42 -3.33,-32.08 -1.21,-9.55 -2.25,-19.13 -3.31,-28.7l-0.36 -3.19c-3.89,-34.83 -7.67,-69.67 -11.28,-104.52l-1.68 -16.3c-1.7,-16.42 -3.41,-32.85 -4.85,-49.3 -0.82,-9.4 -1.58,-18.81 -2.3,-28.22 -0.52,-6.92 -0.85,-13.79 -1.07,-20.69 -0.85,-0.87 -1.27,-2.14 -0.89,-3.45 0.22,-0.77 0.47,-1.53 0.74,-2.29 -0.02,-0.75 -0.03,-1.49 -0.05,-2.24 -0.01,-0.71 0.7,-1.07 1.28,-0.95 1.04,-2.53 2.19,-5.04 3.16,-7.55 1.55,-4.06 2.83,-8.43 5.03,-12.18zm-86.79 43.84c16.25,-10.18 35.58,-17.51 54.95,-16.72 0.44,0.02 0.56,0.69 0.11,0.79 -10.33,2.31 -20.78,5.12 -30.56,9.21 -9.81,4.1 -19.14,9.63 -27.44,16.26 -15.33,12.25 -27.24,28.18 -35.08,46.14 -4.59,10.52 -7.82,21.63 -10.63,32.74 -2.98,11.76 -5.43,23.64 -7.47,35.6 -4.03,23.62 -6.37,47.5 -7.62,71.42 -1.27,24.33 -0.75,48.68 -1.65,73.02 -0.16,4.22 -6.18,4.13 -6.49,0 -2.05,-27.67 -0.91,-55.78 0.98,-83.42 1.71,-24.85 4.69,-49.66 9.48,-74.11l0.42 -2.12c4.49,-22.63 9.89,-45.8 20.74,-66.29 9.26,-17.49 23.55,-32.03 40.26,-42.51zm225.59 108.13c0.09,-0.24 0.4,-0.24 0.49,0 1.85,5.19 1.92,11.04 2.41,16.5l0.04 0.42c0.47,4.99 0.83,9.98 1.16,14.97l0.12 1.87c1.33,20.38 2.98,40.74 5.48,61.02 2.49,20.2 5.86,40.26 9.5,60.28 0.41,2.23 -0.58,4.5 -2.92,5.14 -2.06,0.57 -4.7,-0.7 -5.14,-2.92 -2.26,-11.49 -4.09,-23 -5.72,-34.59 -2.87,-20.41 -5.01,-40.91 -6.39,-61.47 -0.69,-10.33 -1.12,-20.65 -1.29,-31 -0.08,-4.8 0.05,-9.62 0.3,-14.41l0.06 -1.11c0.28,-4.9 0.25,-10.03 1.89,-14.71zm-175.54 129.83c0.22,-0.12 0.49,0.12 0.35,0.35 -3.15,5.11 -7.4,9.52 -11.51,13.87 -4.3,4.54 -8.49,9.22 -12.88,13.68 -3.17,3.22 -8.27,-1.97 -4.92,-4.92 4.7,-4.15 9.62,-8.09 14.41,-12.15l2.09 -1.78c3.92,-3.32 7.97,-6.6 12.47,-9.04zm149.4 -2.56c-0.23,-0.45 0.3,-0.81 0.67,-0.51 2.54,2.06 4.81,4.53 7.26,6.7 2.43,2.16 4.94,4.17 7.53,6.13 2.6,1.97 5.25,3.86 7.97,5.65 2.26,1.48 4.59,2.67 6.96,3.91 1.1,0.14 2.11,0.68 2.92,1.7 1.28,1.61 1.42,4.66 -0.36,6.06l-0.32 0.25 0 0c-2.08,1.64 -4.55,1.83 -6.59,0 -2.29,-2.05 -4.45,-4.3 -6.64,-6.46l-0.66 -0.65c-2.36,-2.29 -4.66,-4.66 -6.83,-7.13l-1.96 -2.23c-3.64,-4.16 -7.43,-8.63 -9.94,-13.41zm-11.69 -239.58c-0.42,-0.28 -0.16,-1.03 0.36,-0.85l0.96 0.33c3.99,1.39 8.1,2.93 11.73,5.06 3.9,2.3 7.49,5.03 10.93,7.97 7.11,6.07 13.16,13.54 18.31,21.33 10.32,15.62 16.7,33.51 21.85,51.42 5.49,19.09 9.72,38.59 13.18,58.14 3.51,19.87 6.22,39.92 8,60.02 0.88,9.9 1.46,19.81 1.76,29.75 0.15,5.11 0.15,10.22 0.11,15.33 -0.01,1.32 -0,2.63 0.01,3.94l0.05 3.94c0.03,2.49 0.33,5.11 -0.27,7.55 -0.95,3.92 -7.43,3.19 -7.22,-0.82 -0.2,-1.33 -0.2,-2.71 -0.15,-4.09 -0.03,-0.18 -0.06,-0.36 -0.1,-0.54 -0.11,-0.53 -0.02,-1.02 0.19,-1.44 0.03,-0.66 0.06,-1.32 0.07,-1.97 0.04,-2.63 0.04,-5.26 -0.03,-7.89 -0.15,-5.55 -0.37,-11.1 -0.6,-16.65 -0.45,-11.09 -1.06,-22.17 -1.96,-33.23 -3.13,-38.49 -9.72,-77.2 -20.81,-114.23 -5.15,-17.2 -12.25,-34.08 -22.42,-48.94 -4.52,-6.6 -9.62,-12.69 -15.27,-18.35 -5.69,-5.69 -11.95,-11.35 -18.66,-15.8zm-76.7 248.12l0.77 5.56c0.38,2.78 0.76,5.56 1.13,8.34 2.45,-0.34 4.96,-0.48 7.32,-0.69 4.14,-0.37 8.3,-0.54 12.45,-0.72 8.58,-0.35 17.2,-0.97 25.79,-0.92 0.09,0 0.17,0.01 0.25,0.01l0.43 -10.97 0 0 -6.03 -0.01 0 0c-5.11,-0.01 -10.22,-0.05 -15.33,-0.1 -4.6,-0.04 -9.21,-0.05 -13.81,-0.14l-1.97 -0.05c-3.49,-0.09 -7.34,0.1 -10.98,-0.33zm48.64 -15.92c-0.25,0.03 -0.5,0.05 -0.76,0.06 -1.2,0.05 -2.4,0.02 -3.6,0.03 -2.55,0.02 -5.09,0.04 -7.64,0.04 -5.09,-0 -10.18,0.03 -15.28,0.09 -5.24,0.06 -10.48,0.15 -15.72,0.16 -2.54,0 -5.07,-0.06 -7.61,-0.13 0.41,3.61 0.84,7.22 1.31,10.82 3.94,-0.53 8.18,-0.26 12.04,-0.3l0.5 -0.01c5.26,-0.09 10.52,-0.02 15.78,-0.02 5.41,0.01 10.82,0.02 16.24,0.07l4.45 0.04 0 0 0.01 -0.22 0 0c0.13,-3.54 0.21,-7.08 0.28,-10.62zm-52.56 -17.27c0.49,4.26 0.96,8.53 1.43,12.8 0.31,-0.05 0.63,-0.09 0.95,-0.12 2.54,-0.27 5.08,-0.49 7.63,-0.65 5.09,-0.32 10.18,-0.48 15.27,-0.62 5.24,-0.14 10.48,-0.25 15.73,-0.32 2.55,-0.04 5.09,-0.03 7.64,-0.01 1.19,0.01 2.4,-0.03 3.59,0.05 0.14,0.01 0.28,0.03 0.41,0.04l0.09 -6.41c0.02,-1.07 0.03,-2.13 0.05,-3.2 -3.94,0.24 -7.94,0.15 -11.87,0.15l-0.91 0c-4.94,0.02 -9.89,-0.05 -14.83,-0.15 -5.1,-0.11 -10.19,-0.27 -15.28,-0.6 -2.06,-0.13 -4.11,-0.31 -6.16,-0.53l-1.03 -0.12c-0.89,-0.11 -1.81,-0.19 -2.73,-0.3zm53.21 -18.08c-9.48,0.75 -18.91,1.07 -28.42,1.16l-1.43 0.01c-8.4,0.06 -16.87,0.41 -25.29,0.19 0.5,4.37 1,8.73 1.51,13.1 1.21,-0.06 2.42,-0.06 3.6,-0.1 2.4,-0.09 4.79,-0.11 7.19,-0.11 4.94,-0.01 9.88,0.03 14.83,0.02 5.09,-0.01 10.19,-0.1 15.28,-0.19 4.13,-0.08 8.3,-0.39 12.44,-0.38l0.3 -13.7 0 0zm0.4 -18.63c-1.1,0.37 -2.4,0.39 -3.82,0.45l-3.67 0.18c-1.7,0.08 -3.4,0.16 -5.1,0.22 -5.67,0.21 -11.34,0.4 -17.02,0.58 -5.81,0.18 -11.65,0.29 -17.47,0.11 -2.85,-0.09 -5.67,-0.24 -8.51,-0.48 -0.7,-0.06 -1.42,-0.1 -2.13,-0.15 0.66,5.78 1.32,11.57 1.99,17.35 8.38,-1.03 16.83,-1.67 25.19,-2.73l7.57 -0.97c7.56,-0.97 15.12,-1.91 22.71,-2.71l0.26 -11.87 0 0zm0.4 -18.83c-1.61,0.4 -3.45,0.38 -5,0.48l-0.29 0.02c-2.93,0.22 -5.87,0.33 -8.81,0.41 -5.76,0.14 -11.53,0.21 -17.29,0.25l-3.47 0.02c-4.62,0.03 -9.24,0.04 -13.86,-0.07 -2.96,-0.07 -5.92,-0.21 -8.88,-0.36 -0.89,-0.04 -1.79,-0.07 -2.7,-0.12 0.62,5.48 1.24,10.95 1.87,16.43 0.97,-0.15 1.95,-0.27 2.88,-0.43 2.39,-0.4 4.77,-0.73 7.18,-1.01 5.21,-0.62 10.44,-1.07 15.68,-1.45 5.37,-0.39 10.75,-0.72 16.12,-1.1l3.81 -0.27c1.27,-0.09 2.54,-0.17 3.81,-0.25 2.17,-0.13 4.69,0.02 6.84,-0.45 0.58,-0.24 1.23,-0.3 1.88,-0.16l0.26 -11.92 0 0zm0.49 -22.05c-0.56,0.71 -1.39,1.08 -2.38,1.21 -5.17,0.67 -10.48,0.78 -15.7,1.1l-0.92 0.06c-5.39,0.35 -10.78,0.63 -16.17,0.92 -5.54,0.29 -11.07,0.53 -16.62,0.73 -2.35,0.08 -4.72,0.09 -7.07,0.06l-1.01 -0.02c-0.97,-0.02 -1.98,-0.01 -3,-0.05 0.56,5.12 1.13,10.24 1.71,15.36 1.04,-0.11 2.07,-0.2 3.08,-0.31 2.96,-0.31 5.92,-0.62 8.88,-0.86 5.62,-0.44 11.25,-0.71 16.88,-0.99 5.76,-0.29 11.53,-0.48 17.29,-0.75 2.79,-0.13 5.59,-0.29 8.38,-0.55 1.95,-0.18 4.27,-0.85 6.31,-0.6 0.11,-5.11 0.23,-10.22 0.34,-15.33zm0.45 -19.75c-0.09,0.14 -0.19,0.27 -0.32,0.39 -2.28,2.25 -5.08,2.08 -8.1,2.31l-0.19 0.01c-2.96,0.25 -5.92,0.49 -8.88,0.7 -5.92,0.43 -11.85,0.73 -17.78,0.99 -6.07,0.27 -12.17,0.46 -18.25,0.34 -3.89,-0.08 -7.96,-0.07 -11.93,-0.45 0.61,5.64 1.22,11.28 1.84,16.92 1.11,-0.21 2.24,-0.37 3.3,-0.54 2.68,-0.42 5.36,-0.85 8.06,-1.16 5.39,-0.62 10.77,-1.2 16.17,-1.72 4.62,-0.45 9.23,-0.9 13.85,-1.31l2.77 -0.24c5.51,-0.46 11.09,-1.23 16.62,-1.34 0.91,-0.02 1.94,0.48 2.46,1.26 0.12,-5.39 0.25,-10.78 0.38,-16.17zm0.38 -15.99c-1.41,0.17 -2.92,0.07 -4.22,0.12 -3.28,0.11 -6.57,0.21 -9.85,0.3l-19.7 0.58 0 0c-6.71,0.2 -13.44,0.35 -20.15,0.25 -2.95,-0.04 -5.92,-0.05 -8.87,-0.21l-0.98 -0.06c-1.21,-0.08 -2.71,-0.09 -4.16,-0.24l1.72 15.92 0 0c3.95,-0.57 8.02,-0.78 11.93,-1.12l0.84 -0.07c5.77,-0.53 11.57,-0.87 17.36,-1.27 5.93,-0.4 11.86,-0.89 17.78,-1.39 2.96,-0.25 5.92,-0.5 8.88,-0.77l0.36 -0.04c2.8,-0.29 5.42,-0.91 7.9,0.74 0.36,0.24 0.65,0.56 0.84,0.92 0.11,-4.56 0.21,-9.12 0.33,-13.67zm0.46 -18.58c-12,0.48 -24,0.85 -36.01,1.01 -6.76,0.09 -13.51,0.03 -20.27,-0.11 -2.93,-0.06 -5.89,-0.2 -8.81,-0.43l-1.1 -0.09c-1.39,-0.12 -2.86,-0.2 -4.31,-0.34 0.6,5.47 1.2,10.95 1.79,16.42 1.43,-0.27 2.93,-0.39 4.19,-0.55l0.29 -0.04c3.12,-0.43 6.27,-0.68 9.4,-0.96 6.1,-0.54 12.24,-0.88 18.36,-1.18 6.27,-0.3 12.54,-0.56 18.81,-0.84l6.27 -0.28c1.04,-0.05 2.09,-0.09 3.13,-0.14 1.49,-0.06 2.99,-0.12 4.48,-0.18 0.74,-0.03 1.5,-0.13 2.24,-0.09l0.21 -0.03c0.1,-0.01 0.18,-0.02 0.26,-0.03 0.2,-0.15 0.42,-0.28 0.64,-0.38l0.14 -0.05 0.29 -11.72zm-72.46 -17.61c0.56,4.93 1.11,9.86 1.65,14.79 1.71,-0.2 3.44,-0.3 5.08,-0.45 3.3,-0.3 6.61,-0.55 9.91,-0.71l6.6 -0.31c4.4,-0.2 8.8,-0.4 13.21,-0.56 12.06,-0.44 24.12,-0.94 36.17,-1.56 0.09,-3.34 0.17,-6.69 0.26,-10.03 -0.58,0.62 -1.41,1.03 -2.51,1.03 -12.65,-0.03 -25.31,0.04 -37.96,-0.17 -6.33,-0.1 -12.66,-0.26 -18.98,-0.58 -3.09,-0.16 -6.21,-0.48 -9.28,-0.91 -1.31,-0.18 -2.74,-0.31 -4.15,-0.54zm-2.03 -17.56c0.59,5.05 1.18,10.1 1.75,15.15 1.57,-0.28 3.19,-0.43 4.66,-0.63 3.15,-0.43 6.32,-0.77 9.49,-0.95 6.17,-0.35 12.35,-0.53 18.53,-0.66 12.65,-0.27 25.31,-0.27 37.96,-0.37 1.19,-0.01 2.07,0.46 2.65,1.16 0.09,-3.15 0.18,-6.3 0.28,-9.46 -1.22,-0.13 -2.43,-0.31 -3.55,-0.39 -3.45,-0.24 -6.89,-0.46 -10.34,-0.66 -7.2,-0.41 -14.4,-0.77 -21.6,-1.08 -7.2,-0.31 -14.41,-0.62 -21.61,-0.89l-3.15 -0.12c-5.01,-0.19 -10.11,-0.42 -15.06,-1.12zm-2.27 -19.01c0.62,5.11 1.23,10.22 1.84,15.34l0.18 1.58 0 0c6.03,-1.17 12.38,-1.52 18.46,-1.77 7.21,-0.31 14.4,-0.46 21.61,-0.44 7.21,0.02 14.4,0.19 21.6,0.49 3.6,0.15 7.2,0.32 10.79,0.52 0.99,0.05 2.15,0.03 3.34,0.04 0.03,-0.8 0.05,-1.61 0.08,-2.41 0.11,-3.25 0.22,-6.51 0.33,-9.76 -2.43,1.25 -5.59,1.75 -8.04,2.29l-0.28 0.06c-4.03,0.91 -8.16,1.49 -12.27,1.85 -8.09,0.71 -16.26,0.44 -24.34,-0.24l-1.41 -0.12c-7.1,-0.62 -14.45,-1.4 -21.33,-3.15 -3.28,-0.84 -6.66,-2.01 -9.6,-3.7 -0.31,-0.18 -0.62,-0.36 -0.94,-0.56zm68.33 -60.75c0.07,-0.28 0.48,-0.34 0.62,-0.08 0.96,1.82 1.31,4 1.97,5.94 0.71,2.09 1.38,4.2 2.17,6.27 1.65,4.32 3.59,8.47 5.9,12.47 2.29,3.96 -4.13,6.79 -5.81,2.45 -1.74,-4.47 -3.17,-9.1 -4.04,-13.83 -0.42,-2.31 -0.8,-4.65 -0.92,-6.99 -0.1,-2.01 -0.39,-4.26 0.11,-6.23z"/>
         </g>
         <g id="head_x002f_Long-Curly">
          <path id="__xd83c__xdfa8_-Background_0" class="fil0" d="M312.9 186.45c-29.75,-24.19 -77.41,-32.04 -109.25,-7.64 -24.74,22.9 -34.98,87.97 -30.6,120.67 1.22,20.97 17.23,44.74 40.75,38.11 3.99,-0.39 7.87,-1.93 11.9,-2.25 4.82,-0.56 9.68,-0.56 14.49,0.12 10.48,1.48 19.77,7.05 29.95,9.65 18.88,4.83 39.94,1.58 56.19,-9.3 53.7,-35.32 29.37,-115.19 -13.41,-149.37l0 0z"/>
          <g>
           <path id="__xd83d__xdd8d_-Ink_1" class="fil2" d="M308.93 345.7c0.55,-0.19 1.1,-0.39 1.65,-0.59 0.04,0.13 0.09,0.25 0.16,0.37 0.08,0.19 0.15,0.38 0.24,0.56 -0.69,0.01 -1.37,-0.12 -2.05,-0.33l0 0zm-1.1 -234.38c-0.24,-0.55 -0.53,-1.07 -0.84,-1.58 0.77,0.25 1.54,0.59 2.23,1.04 -0.47,0.16 -0.93,0.34 -1.39,0.54l0 0zm-117.5 71.56c-0.03,-0.01 -0.06,-0.01 -0.09,-0.02 0.4,-1.07 1.12,-2.09 1.92,-2.82 0.14,-0.13 0.3,-0.25 0.45,-0.38 -0.84,1 -1.61,2.08 -2.27,3.22l0 0zm214.99 112.36c-0.4,-3.77 -0.9,-7.53 -1.56,-11.27 -0.63,-3.58 -1.16,-7.41 -2.98,-10.58 -1.81,-3.16 -3.62,-6.24 -5.78,-9.02 0.31,-1.42 0.71,-2.76 1.07,-3.83 2.04,-6.2 4.04,-14.07 -0.19,-19.83 -0.98,-1.34 -2.18,-2.36 -3.55,-3.28 -0.58,-0.39 -1.55,-0.75 -2,-1.29 -0.32,-0.38 -0.21,-0.18 -0.22,-0.37 -0.08,-1.02 2.32,-3.18 2.88,-3.99 1.05,-1.5 1.83,-3.19 2.43,-4.91 2.36,-6.82 0.75,-14.34 -0.66,-21.17 -0.75,-3.62 -1.58,-7.26 -1.85,-10.96 -0.25,-3.48 0.22,-6.87 0.5,-10.33 0.27,-3.41 0.2,-6.93 -1.26,-10.09 -0.71,-1.54 -1.8,-2.9 -3.11,-3.95 -1.28,-1.04 -2.89,-1.64 -4.14,-2.67 -1.25,-1.03 -0.89,-2.42 -0.57,-3.84 0.45,-1.93 1.01,-3.84 1.07,-5.83 0.1,-3.47 -1.32,-6.85 -3.53,-9.47 -2.28,-2.71 -5.54,-4.54 -9.06,-4.95 -1.61,-0.19 -3.19,0.13 -4.79,0.02 -1.58,-0.11 -1.93,-0.9 -2.23,-2.35 -0.69,-3.32 -0.41,-6.59 -2.04,-9.69 -1.45,-2.75 -4.02,-4.62 -6.87,-5.71 -5.21,-2.02 -11.28,-1.6 -16.78,-0.41 -3.25,-9.56 -13.38,-15.82 -23.35,-15.9 -1.56,-2.64 -4.19,-4.62 -7.2,-5.77 -4.97,-1.92 -10.24,-0.8 -15.43,-0.8l-0.02 0c-0.52,-0.03 -1.04,-0.05 -1.56,-0.04 -0.49,-0.03 -0.98,-0.07 -1.47,-0.12 -5.9,-0.7 -11.73,-3.11 -17.57,-0.75 -2.61,1.05 -4.68,2.68 -5.99,4.75 -1.98,0.54 -3.93,1.15 -5.84,1.87 -8.29,0.22 -16.5,4.66 -20.7,11.87 -5.9,-0.67 -12.31,0.47 -16.21,5.29 -1.02,1.26 -1.8,2.73 -2.33,4.3 -3.98,1.29 -7.66,3.58 -10.07,7.04 -2.2,3.15 -2.62,7.23 -1.13,10.62 -3.55,2.58 -6.33,6.26 -7.67,10.61 -0.81,2.64 -0.93,5.38 -0.41,7.98 -3.64,0.81 -7.12,2.3 -10.2,4.55 -3.23,2.35 -7.27,6.1 -7.48,10.4 -0.02,0.32 -0,0.63 0.02,0.95 -7.11,-0.5 -14.36,0.7 -19.17,6.41 -3.61,4.28 -5.18,9.79 -4.21,14.81 -8.46,1.72 -16.46,6.14 -22.04,12.69 -4.06,4.75 -7.66,10.8 -7.44,17.27 0.07,1.95 0.53,3.91 1.32,5.73l0 0c-0.34,0.64 -0.69,1.35 -1.02,2.1 -5.24,3.67 -9.05,9.42 -11.19,15.76 -1.73,5.13 -2.82,11.8 -0.97,17.03 0.28,0.8 0.64,1.55 1.05,2.24 -0.35,0.37 -0.68,0.74 -1,1.12 -3.53,4.13 -7.11,9.33 -6.87,15.02 0.1,2.29 0.95,4.59 2.34,6.48 -4.89,4.95 -8.82,11.21 -8.43,18.19 0.33,6.08 3.67,12.25 8.89,15.17 -0.87,4.68 0.29,9.62 3.94,13.28 1.82,1.83 3.96,3.03 6.23,3.67 0.51,5.51 5.4,9.95 10.6,11.23 0.97,0.24 1.94,0.38 2.9,0.45 4.68,2.29 10.25,2.03 15.02,-0.07 1.41,1.79 3.24,3.24 5.37,4.29 0.86,0.43 1.78,0.78 2.73,1.06 6.74,2 13.65,-0.71 19.54,-3.87 0.19,-0.1 0.54,-0.23 0.85,-0.37 0.81,0.91 2.3,1.81 3.07,2.25 2.62,1.51 5.83,2.21 8.84,2.01 3.53,-0.24 6.65,-1.4 9.53,-3.06 0.42,0.07 0.85,0.11 1.27,0.14 2.71,0.14 5.13,-0.72 7.31,-2.07 1.44,0.19 2.91,0.17 4.4,-0.09 3.29,0.84 6.49,-0.49 9.06,-2.61 1.14,-0.94 2.1,-2.04 3.13,-3.09 1.07,-1.09 1.89,-1.34 3.14,-2.08 2.96,-1.73 3.32,-6.13 2.04,-9.3 0.24,-0.56 0.39,-1.18 0.39,-1.86 -0.01,-6 -2.77,-11.5 -6.16,-16.3 -1.52,-2.14 -3.16,-4.23 -4.97,-6.13 -1.45,-1.52 -3.49,-4 -5.64,-4.62 -0.13,-0.09 -0.27,-0.19 -0.4,-0.28 0.42,-1.46 0.66,-2.94 0.56,-4.46 -0.11,-1.56 -0.61,-3.03 -1.41,-4.29 2.7,-5.23 3.84,-10.98 3.3,-16.97 2.2,-3.12 3.86,-6.56 4.72,-10.33 0.53,-2.33 0.83,-4.79 0.79,-7.18 -0.02,-1.15 -0.44,-2.6 -0.45,-3.79 0.06,0.38 0.55,-1.03 0.74,-1.38 2.18,-4.05 4.98,-7.21 5.45,-11.98 0.27,-2.79 -0.39,-5.88 -2.06,-8.17 1.07,-4.23 1.06,-8.76 -0.63,-12.8 -0.45,-1.08 -0.97,-2.13 -1.57,-3.13 0.28,-0.84 0.53,-1.69 0.85,-2.46 0.13,-0.3 0.25,-0.61 0.38,-0.92 1.23,-1.08 2.37,-2.26 3.32,-3.42 2.12,-2.56 3.75,-5.51 3.95,-8.9 0.1,-1.7 -0.3,-3.32 -0.79,-4.93 -0.22,-0.73 -0.35,-1.54 -0.61,-2.25 -0.14,-0.39 -0.49,-0.8 -0.61,-1.17 -0.03,-0.08 -0.05,-0.15 -0.07,-0.2 0.02,-0.06 0.03,-0.17 0.03,-0.38 0,-1.62 0.22,-3.21 0.23,-4.78 1.49,1.5 3.28,2.62 5.31,3.28 4.1,1.32 8.38,0.72 12.01,-1.31 3.91,2.68 8.3,5.1 12.9,6.08 2.74,0.58 5.48,0.34 8.22,0.7 2.73,0.36 5.36,1.55 7.93,2.48 5.72,2.07 11.42,4.19 17.15,6.2 4.63,1.62 9.64,2.91 14.49,2 1.36,2.1 3.13,3.87 5.4,5.18 1.62,0.93 3.4,1.56 5.25,1.87 1.63,0.28 3.54,0.17 4.86,1.28 1.29,1.09 2.09,2.71 3.25,3.93 1.29,1.37 2.88,2.55 4.55,3.4 1.34,0.68 2.71,1.18 4.09,1.5 -0.12,3.09 -0.24,6.18 -0.28,9.27 -0.07,6.72 -0.04,13.45 -0.13,20.17 -0.09,6.7 -0.3,13.4 -0.66,20.09 -0.33,6.28 -0.81,12.58 -2.3,18.71 -4.97,20.33 -23.57,34.88 -44.39,35.63 -6.18,0.22 -12.3,-0.65 -18.21,-2.47 -6.12,-1.89 -11.59,-5.77 -17.87,-6.96 -1.64,-0.31 -3.19,1.34 -2.25,2.93 1.62,2.73 3.59,4.39 6.28,6.04 2.82,1.72 5.96,2.99 9.05,4.1 5.7,2.04 11.73,3.23 17.78,3.56 4.61,0.25 9.24,-0.06 13.76,-0.93 0.32,0.97 0.88,1.92 1.3,2.82 0.06,0.13 0.28,0.04 0.24,-0.1 -0.07,-0.23 -0.11,-0.42 -0.13,-0.59 1.52,1.98 3.87,3.35 6.28,4.02 1.7,0.47 3.51,0.62 5.26,0.42 0.57,-0.06 1.1,-0.16 1.64,-0.28 1.78,1.56 4.06,2.6 6.35,3.12 -0.39,2.39 0.79,5 3.52,5.67 1.15,0.29 2.25,0.29 3.36,0.19 0.89,0.42 1.85,0.74 2.87,0.96 1.33,0.29 2.91,-0.08 3.91,-1.04 0.55,0.38 1.06,0.65 1.57,1.26 2.08,2.52 6.58,0.51 6.78,-2.4 0.66,0 1.32,0.01 1.99,0.03 0.16,0.07 0.32,0.15 0.48,0.22 2.91,1.35 5.92,2.53 9.14,1.47 0.59,-0.2 1.13,-0.44 1.63,-0.73 2.27,0.2 4.5,0.21 6.8,-0.53 1.36,-0.44 2.63,-1.14 3.69,-2.05 3.55,1.04 7.29,1.51 10.81,0.22 2.64,-0.96 4.77,-2.48 6.26,-4.49 2.29,0.08 4.61,-0.47 6.71,-1.56 3.58,-1.86 6.09,-5.38 7.84,-8.91 3.85,-7.8 6.13,-16.17 7.03,-24.81 0.88,-8.51 -0.38,-16.97 -1.26,-25.42z"/>
          </g>
         </g>
         <g id="face_x002f_Smiling">
          <path id="__xd83d__xdd8d_-Ink_2" class="fil1" d="M295.79 313.23c-3.04,-1.24 -5.75,-3.31 -7.74,-5.95 -0.69,-0.92 -0.87,-1.89 -0.72,-2.78 0.16,-1 0.75,-1.9 1.56,-2.51 0.81,-0.61 1.82,-0.91 2.79,-0.76 0.85,0.13 1.69,0.6 2.36,1.56l0.14 0.19c1.18,1.6 2.72,2.91 4.47,3.75 1.69,0.81 3.57,1.19 5.53,0.97 3.72,-0.42 6.28,-2.43 9.01,-5.16 0.34,-0.35 0.68,-0.7 1.02,-1.06 0.21,-0.33 0.51,-0.54 0.84,-0.65 0.37,-0.12 0.78,-0.12 1.16,0.02 0.37,0.13 0.69,0.37 0.91,0.69 0.21,0.31 0.33,0.69 0.29,1.12 -0.25,2.83 -1.73,5.36 -3.83,7.34 -2.33,2.2 -5.43,3.73 -8.34,4.26 -3.21,0.59 -6.48,0.17 -9.44,-1.04l0 0zm10.96 -43.69c3.42,2.08 8.62,6.92 4.94,12.07 -4.32,4.54 -10.55,-0.67 -13.62,-3.02 -2.84,-1.82 -6.04,2.87 -3.4,5 22.17,16.42 31.17,-13.5 13.8,-16.49 -1.91,-0.33 -2.62,1.8 -1.73,2.44zm-39.73 -19.1c0.38,-4.69 7.51,-5.75 8.22,-1.11 0.63,4.15 -0.11,7.97 -1.98,11.71 -1.79,3.57 -6.28,1.91 -6.62,-1.35 -0.46,-4.36 0.15,-6.33 0.38,-9.25zm54.3 -2.07c0.99,-1.3 2.43,-2.19 4.15,-1.69 5.37,1.57 3.79,9.21 1.9,12.92 -1.03,2.02 -4.34,2.53 -5.84,0.75 -2.44,-2.9 -3.61,-8.68 -0.51,-11.54 0.08,-0.15 0.18,-0.3 0.29,-0.45zm-48.14 -18.43l0.85 -0.15c2.63,-0.45 5.89,-0.89 7.75,1.22 0.98,1.12 1.33,3.2 0,4.27 -2.33,1.89 -4.91,1.16 -7.7,1.32 -2.3,0.13 -4.51,0.51 -6.73,1.15 -4.86,1.39 -8.82,3.93 -12.98,6.72 -0.55,0.37 -1.1,-0.33 -0.84,-0.84 2.4,-4.7 7.04,-8.56 11.7,-10.91 2.48,-1.25 5.2,-2.3 7.95,-2.77zm43.24 -2.1l0.65 0.13c7.07,1.48 16.26,4.43 19.61,11.38 0.13,0.98 -0.01,1.19 -0.12,1.33l-0.04 0.05c-0.09,0.12 -0.16,0.28 -0.59,0.41 -0.12,-0.03 -0.24,-0.06 -0.36,-0.09 -1.53,-0.4 -2.75,-0.96 -3.93,-1.53l-1.27 -0.63c-1.48,-0.73 -2.97,-1.42 -4.55,-1.94 -3.38,-1.1 -6.85,-1.88 -10.37,-2.29 -0.76,-0.09 -1.5,-0.35 -2.08,-0.79 -0.55,-0.42 -0.97,-1 -1.16,-1.77 -0.25,-1 -0.18,-1.76 0.36,-2.66 0.4,-0.68 0.98,-1.15 1.64,-1.42 0.68,-0.27 1.44,-0.34 2.21,-0.19z"/>
         </g>
         <g id="accessories_x002f__x002a_-None">
         </g>
        </g>
       </g>
      </g>
     </g>
    </g>
   </g>
  </g>
  <path class="fil3" d="M246.59 493.18c-136.19,0 -246.59,-110.4 -246.59,-246.59 0,-136.19 110.4,-246.59 246.59,-246.59 136.19,0 246.59,110.4 246.59,246.59 0,136.19 -110.4,246.59 -246.59,246.59z"/>
 </g>
</svg>
