<?xml version="1.0" encoding="UTF-8"?>
<!DOCTYPE svg PUBLIC "-//W3C//DTD SVG 1.1//EN" "http://www.w3.org/Graphics/SVG/1.1/DTD/svg11.dtd">
<!-- Creator: CorelDRAW -->
<svg xmlns="http://www.w3.org/2000/svg" xml:space="preserve" width="84.6667mm" height="84.6667mm" version="1.1" style="shape-rendering:geometricPrecision; text-rendering:geometricPrecision; image-rendering:optimizeQuality; fill-rule:evenodd; clip-rule:evenodd"
viewBox="0 0 662.77 662.77"
 xmlns:xlink="http://www.w3.org/1999/xlink"
 xmlns:xodm="http://www.corel.com/coreldraw/odm/2003">
 <defs>
  <style type="text/css">
   <![CDATA[
    .fil2 {fill:none}
    .fil1 {fill:#262624}
    .fil0 {fill:#D97757}
   ]]>
  </style>
   <clipPath id="id0">
    <path d="M331.38 662.77c-183.02,0 -331.38,-148.37 -331.38,-331.38 0,-183.02 148.37,-331.38 331.38,-331.38 183.02,0 331.38,148.37 331.38,331.38 0,183.02 -148.37,331.38 -331.38,331.38z"/>
   </clipPath>
 </defs>
 <g id="Capa_x0020_1">
  <metadata id="CorelCorpID_0Corel-Layer"/>
  <path class="fil0" d="M331.38 662.77c-183.02,0 -331.38,-148.37 -331.38,-331.38 0,-183.02 148.37,-331.38 331.38,-331.38 183.02,0 331.38,148.37 331.38,331.38 0,183.02 -148.37,331.38 -331.38,331.38z"/>
  <g style="clip-path:url(#id0)">
   <g id="_2977673742320">
    <g>
     <g id="Introduction">
      <g id="variations">
       <g id="images">
        <g id="a-person_x002f_bust">
         <g id="body_x002f_Thunder-T-Shirt">
          <path id="_1" class="fil0" d="M327.67 360.62c9.31,-2.58 20.02,-2.28 29.57,-1.62 9.7,0.67 20.11,1.82 29.22,5.44 7.91,3.15 14.59,8.45 18.65,16.04 3.34,6.24 4.91,13.09 5.89,20.04 0.4,2.84 0.74,5.7 1.06,8.55l0.66 5.94c0.26,2.27 0.48,3.97 0.93,6.51 1.25,7.01 2.99,12.86 6.87,17.96 9.41,12.34 24.77,16.47 38.74,21.74 8.94,3.37 16.02,9.43 17.98,19.18 1.9,9.4 73.93,88.26 81,94.91l0.19 0.18c5.49,4.94 4.84,14.23 5.61,21.01 0.82,7.27 1.61,14.55 2.35,21.83 1.51,14.79 2.85,29.59 4.04,44.41 4.61,57.94 6.71,116.09 6.26,174.22l-0.03 3.29c-0.07,7.38 -0.01,14.79 -0.34,22.16 -0.32,7.08 -2.46,14.17 -9.02,17.87 -6.08,3.43 -13.76,3.13 -20.56,3.47l-0.41 0.02c-7.29,0.4 -14.58,0.73 -21.88,1 -29.65,1.1 -59.32,1.22 -88.98,1.08 -58.85,-0.27 -117.76,-1.57 -176.55,1.73 -14.99,0.84 -62.77,-4.27 -77.7,-2.81 -14.28,1.39 -2.03,8.4 -10.85,7.93 -29.01,-1.52 -56.53,-7.99 -84.33,-15.79 -3.47,-0.97 -6.13,-4.35 -6.08,-7.99 0.52,-40.02 1.65,-80.04 3.41,-120.02 1.57,-35.62 3.64,-71.22 6.21,-106.78 1.12,-15.46 2.33,-30.91 3.63,-46.35l0.57 -6.62c0.74,-8.53 1.16,-17.23 2.84,-25.64 1.66,-8.32 5.42,-15.54 10.88,-21.99 4.9,-5.79 60.35,-51.08 73.71,-59.66 12.78,-8.21 26.21,-15.13 39.33,-22.74 5.46,-3.16 10.7,-2.03 15.37,-5.91 2.46,-2.05 38.14,-15.85 47.77,-20.4l0.28 -0.14c7.37,-3.54 14.15,-7.37 19.24,-13.49 1.71,-2.05 5.05,-14.96 5.06,-19.09 0.01,-7.37 -0.55,-15.14 1.68,-22.28 2.66,-8.54 9.06,-14.79 17.71,-17.19zm15.79 190.07l-57.02 111.08 37.08 0 -26.58 61.72 58.36 0 -20.7 86.45 118.4 -148.17 -44.43 0 44.43 -58.34 -30.82 0 30.82 -49.4 -109.54 -3.34z"/>
          <path id="__xd83d__xdd8d_-Ink" class="fil1" d="M534.99 613.14c-0.13,0.13 -0.27,0.26 -0.4,0.4 0.15,-0.22 0.28,-0.44 0.4,-0.66l0 0.26zm-110.81 -32.36c-5.12,6.54 -10.54,19.86 -15.51,26.52 -0.71,0.96 -1.41,1.91 -2.11,2.88 -2.07,2.89 0.69,7.31 4.09,7.13 6.78,-0.36 13.56,-0.87 20.34,-1.38 -13.92,15.52 -25.48,34.8 -38.26,51.24 -0.87,1.1 -1.72,2.21 -2.57,3.32 -3.24,4.22 0.01,6.13 4.43,5 0.92,-0.24 1.83,-0.47 2.74,-0.7 6.43,-1.65 12.85,-3.3 19.28,-4.94 3.55,-0.92 7.13,-2.05 10.73,-2.75 1.48,-0.28 2.9,-0.05 4.3,0.03 -0.67,1.03 -1.62,2.88 -1.8,3.16 -2.1,3.27 -4.21,6.53 -6.34,9.77 -4.14,6.31 -8.31,12.61 -12.63,18.8 -16.84,24.14 -35,47.18 -53,70.44 -4.53,5.85 -9.13,11.64 -13.8,17.37 0.02,-0.04 0.03,-0.07 0.05,-0.1 4.21,-8.19 8.41,-16.38 12.62,-24.57 8,-15.57 15.92,-31.18 24,-46.71 0.41,-0.81 0.84,-1.61 1.26,-2.43 1.68,-3.22 -1.07,-6.56 -4.52,-5.88 -16.8,3.31 -33.44,7.38 -49.87,12.2 -0.74,0.79 -1.83,1.02 -2.8,0.83 -0.66,0.2 -1.32,0.39 -1.98,0.59 0.2,-0.42 0.41,-0.83 0.61,-1.24 -0.67,-0.58 -1.01,-1.49 -0.57,-2.61 9.45,-24.41 22.42,-47.97 37.78,-69.54 -0.62,0.01 -1.23,0.02 -1.85,0.04 -16.86,0.46 -33.4,2.88 -49.65,7.47 -0.08,-1.5 0.83,-3.83 1.32,-4.94 1.97,-4.43 4.23,-8.76 6.34,-13.12 4.32,-8.96 8.65,-17.9 12.97,-26.86 4.23,-8.75 8.42,-17.52 12.4,-26.4 2.09,-4.65 4.17,-9.31 6.25,-13.97 1.7,-3.79 3.04,-7.61 4.44,-11.49 4.13,1.21 57.16,1.48 70.05,2.37 3.16,0.22 6.33,0.42 9.49,0.59 2.52,0.15 6.08,0.7 7.82,-1.58l0.66 0.55c-5.72,6.85 -11.21,13.89 -16.71,20.91l0 0zm-207.03 -127.24c0.26,-0.12 0.52,-0.24 0.78,-0.35 0.13,0.19 0.29,0.36 0.46,0.53 0.42,0.42 0.82,0.88 1.25,1.3 -0.83,-0.49 -1.66,-0.98 -2.49,-1.48l0 0zm370.59 389.56c-0.48,-10.1 -1.01,-20.2 -1.58,-30.3 -1.12,-19.74 -2.28,-39.48 -3.83,-59.2 -3.14,-39.95 -6.06,-79.88 -10.77,-119.68 -1.97,-16.69 -4.73,-33.24 -7.5,-49.81 0.35,-0.32 0.71,-0.64 1.07,-0.95 -0.38,4.53 5.77,7.4 8.82,2.88 0.23,-0.34 0.45,-0.68 0.67,-1.03 2.64,-4.27 8.72,-25.22 8.3,-26.99 -0.76,-3.2 -2.88,-6.04 -4.54,-8.85 -1.45,-2.46 -2.91,-4.92 -4.39,-7.36 -2.96,-4.89 -6.01,-9.72 -9.2,-14.46 -6.62,-9.8 -13.85,-19.21 -22.37,-27.44 -8.82,-8.53 -18.94,-15.54 -29.4,-21.89 -5.02,-3.05 -10.21,-5.81 -15.49,-8.39 -5.21,-2.54 -10.91,-5.34 -16.53,-6.79 -0.32,-0.08 -0.65,0.36 -0.35,0.6 1.49,1.18 3.05,2.29 4.63,3.35 -4.3,-1.49 -8.72,-2.57 -13.19,-2.95 -8.64,-3.04 -17.39,-5.82 -25.98,-8.98 -8.45,-3.12 -16.78,-6.63 -22.4,-14.02 -4.8,-6.31 -7.84,-14.04 -10.17,-21.57 -2.56,-8.3 -3.58,-16.92 -5.95,-25.23 -0.19,-0.67 -1.29,-0.75 -1.43,0 -1.69,8.72 -1.61,18.52 -0.65,27.33 1.01,9.23 3.61,18.29 9.26,25.8 6.57,8.73 15.48,13.59 25.51,17.46 8.09,3.13 16.28,6.32 24.56,9.12 -1.08,0.71 -2.18,1.41 -3.3,2.09 -4.49,2.67 -9.16,5.04 -13.93,7.17 -8.72,3.89 -17.9,6.8 -27.13,9.16 -17.19,4.38 -34.82,6.61 -52.54,6.9 -35.46,0.59 -71.32,-6.84 -103.76,-21.19 -9.13,-4.04 -18.05,-8.48 -26.88,-13.15 -2.76,-1.46 -5.53,-2.93 -8.29,-4.44 0.23,-0.01 0.46,-0.03 0.69,-0.05 6.16,-0.58 12.24,-1.77 18.2,-3.45 12.2,-3.45 23.9,-8.82 35.39,-14.11 9.74,-4.48 19.77,-9.59 25.73,-18.94 3.18,-5 4.64,-10.86 5.83,-16.6 1.32,-6.39 2.88,-12.81 3.85,-19.26 0.34,-2.26 -0.17,-5.32 -2.59,-6.38 -0.97,-0.42 -1.77,-0.77 -2.85,-0.77 -2.4,0 -4.87,1.75 -5.45,4.14 -1.42,5.98 -2.28,12.13 -3.39,18.17 -0.96,5.23 -1.84,10.68 -4.66,15.28 -4.93,8.05 -14.59,12.16 -22.75,16.08 -10.35,4.96 -20.7,9.8 -31.44,13.83 -4.73,1.77 -9.55,3.38 -14.43,4.7 0.19,-1.2 0.03,-2.46 -0.68,-3.41 -1.18,-1.57 -2.52,-2.61 -4.03,-3.8 -1.65,-1.3 -3.87,-1.98 -5.81,-1.41 0,0.01 -0.01,0 -0.01,0 -0.79,-0.17 -1.66,-0.1 -2.56,0.31 -2.79,1.28 -5.56,2.56 -8.34,3.87 -39.97,18.81 -78.81,40.91 -108.23,74.57 -4.24,4.85 -8.21,9.95 -11.93,15.22 -3.62,5.11 -8.09,10.66 -9.09,16.99 -0.08,0.53 0.69,0.77 0.82,0.23 0.24,-0.98 0.55,-1.94 0.95,-2.86 -0.82,2.88 -0.78,5.95 0.39,8.96 1.38,3.55 3.91,5.9 7.1,6.83 -3.21,14.07 -5.36,28.32 -7.1,42.73 -2.49,20.76 -4.25,41.57 -5.58,62.43 -2.66,41.64 -3.85,83.49 -2.99,125.2 0.24,11.79 0.65,23.58 1.25,35.37 0.3,5.89 0.64,11.78 1.02,17.67 0.37,5.8 0.07,12.18 5.12,15.24 0.06,0.23 0.13,0.45 0.19,0.68 1.23,4.28 6.69,2.9 7.21,-0.98 0.01,-0.04 0.01,-0.09 0.02,-0.13 4.13,-3.15 3.51,-8.41 3.2,-13.45 -0.32,-5.44 -0.67,-10.88 -0.96,-16.31 -0.55,-10.43 -1.02,-20.85 -1.45,-31.28 -0.82,-20.63 -1.29,-41.28 -1.44,-61.93 -0.3,-41.29 2.08,-82.52 4.91,-123.7 1.19,-17.23 2.57,-34.38 2.99,-51.59 2.21,-1.15 2.89,-4.42 1.78,-6.63 26.18,17.87 50.47,39.23 69.98,64.06 3.26,4.14 6.37,8.41 9.35,12.76 0.97,1.41 1.89,2.88 2.82,4.35 -0.9,4.1 -1.6,8.26 -2.52,12.19 -1.88,8.12 -2.68,16.54 -3.76,24.79 -2.2,16.75 -3.74,33.66 -5.05,50.5 -2.58,33.27 -4.49,66.53 -5.09,99.89 -0.33,18.87 -0.78,37.85 0.05,56.72 -0.62,3.69 2.7,7.29 6.17,7.76 3.04,0.41 5.88,-1.17 7.21,-3.72 9.48,1.18 19.21,1.72 28.62,1.79 12.69,0.09 25.37,0.08 38.06,-0.19 25.38,-0.56 50.75,-1.21 76.13,-1.96 50.75,-1.5 101.5,-3 152.25,-4.51 14.07,-0.42 28.15,-0.83 42.22,-1.25 6.35,-0.19 14.26,1.64 19.26,-3.26 0.86,-0.85 1.52,-1.84 2,-2.9 1.5,0.37 3.33,0.01 4.32,-1.15 1.84,-2.17 3.19,-4.18 3.12,-7.19 -0.06,-2.81 -0.84,-5.78 -1.24,-8.57 -0.76,-5.23 -1.5,-10.47 -2.2,-15.71 -1.38,-10.36 -2.67,-20.73 -3.85,-31.1 -2.43,-21.22 -4.63,-42.49 -6.35,-63.77 -3.41,-42.1 -4.37,-84.42 -4.25,-126.64 0.01,-3.78 0.04,-7.56 0.06,-11.33 0.16,0.2 0.33,0.39 0.52,0.55 0.15,0.13 0.31,0.26 0.46,0.4 1.77,1.56 4.73,2.36 6.85,0.89 2.61,-1.69 4.41,-4.23 6.45,-6.52 2.14,-2.41 4.34,-4.75 6.57,-7.08 4.31,-4.51 8.76,-8.82 13.31,-13.09 0.37,-0.34 0.73,-0.69 1.1,-1.02 0.03,13.44 0.01,26.88 0.37,40.31 0.54,19.96 1.62,39.89 2.61,59.82 1.97,39.46 4,78.91 5.96,118.37 0.55,11.02 1.07,22.04 1.61,33.05 0.28,5.51 0.55,11.02 0.81,16.53 0.14,2.98 0.28,5.97 0.41,8.95 0.15,3.2 -0.05,6.63 1.03,9.67 2.46,6.96 13.09,7.94 15.13,0 1.28,-4.98 0.3,-10.75 0.07,-15.87 -0.24,-5.05 -0.47,-10.1 -0.71,-15.15l0 0z"/>
         </g>
         <g id="head_x002f_Long-Bangs">
          <path id="__xd83c__xdfa8_-Background_0" class="fil0" d="M481.07 219.33c-7.14,-25.78 -34.42,-37.02 -58.99,-38.81 -66.53,-6.92 -134.25,30.18 -163.74,90.34 -23.61,45.68 -24.35,93.67 26.4,119.76 2.77,1.53 5.67,3.16 8.62,4.65 2.57,2.39 5.21,4.68 8.1,6.61 27.64,18.18 61.55,26.04 94.42,24.34 48.53,-0.98 65.86,-33.92 76.46,-76.17 11.18,-42.06 17.44,-87.7 8.73,-130.71l0 0z"/>
          <path id="__xd83d__xdd8d_-Ink_1" class="fil1" d="M512.93 462.3c-2.27,-6.85 -5.11,-13.5 -7.76,-20.22 -0.56,-3.35 -0.93,-6.72 -1.03,-10.13 -0.37,-12.16 1.91,-24.42 4.46,-36.26 5.18,-24.06 10.68,-47.87 13.43,-72.37 4.93,-43.83 2,-89.41 -17.93,-129.42 -17.27,-34.66 -46.53,-63 -84.33,-73.62 -11.17,-3.14 -22.67,-4.87 -34.25,-5.57 -1.43,-0.23 -2.87,-0.45 -4.29,-0.67 -16.11,-2.43 -32.41,-3.64 -48.69,-2.59 -27,1.74 -53.74,9.5 -76.22,24.85 -22.64,15.46 -38.72,37.13 -46.2,63.56 -7.79,27.5 -7.13,57.28 -20.57,83.06 -3.97,7.62 -8.61,14.86 -13.03,22.22 -11.73,13.09 -24.47,27.65 -27.26,45.66 -3.44,22.25 9.36,41.06 21.47,58.42 10.95,15.68 25.8,37.33 14.54,56.64 -5.31,9.11 -13.83,15.92 -20.23,24.23 -6.63,8.62 -11.81,18.52 -14.48,29.1 -5.02,19.87 -0.4,40.57 13.03,56.1 7,8.08 15.99,13.43 25.71,17.59 9.96,4.26 19.68,8.3 27.92,15.54 3.76,3.31 7.21,6.93 10.46,10.73 3.03,4.75 6.57,9.18 10.55,13.25 4.39,4.47 12.98,-1.65 8.95,-6.91 -0.3,-0.39 -0.59,-0.77 -0.89,-1.16 -2.94,-3.84 -5.9,-7.68 -9,-11.4 -9.24,-14.64 -12.79,-32.57 -8.2,-49.67 1.19,-4.44 2.87,-8.66 4.96,-12.64 0.44,1.16 0.93,2.3 1.44,3.43 2,4.38 4.8,9.57 8.36,14.01 0.14,3.04 0.6,6.06 1.48,9.01 5.49,18.31 23.84,27.34 40.38,34.37 1.62,0.69 3.22,1.36 4.79,2.02 4.32,1.81 8.9,-4.35 6.2,-8.07 -0.71,-0.98 -1.39,-1.98 -2.04,-2.99 -7.76,-12.02 -11.45,-26.4 -9.36,-40.72 2.2,-15.15 11.13,-27.68 19.99,-39.71 8.7,-11.83 18.05,-23.89 21.94,-38.32 4.31,-15.94 0.39,-31.82 -6.26,-46.49 -6.09,-13.42 -14.2,-25.79 -21.01,-38.85 2.33,2.32 4.73,4.57 7.21,6.74 2.79,2.44 5.65,5.23 8.95,6.95 2.44,1.27 4.89,-1.77 2.95,-3.83 -2.54,-2.7 -5.79,-4.79 -8.61,-7.2 -2.71,-2.31 -5.34,-4.72 -7.9,-7.19 -3.16,-3.04 -6.16,-6.23 -9.06,-9.51 -2.32,-5.91 -4.23,-11.97 -5.78,-18.13 -2.11,-8.33 -4.07,-17.2 -3.92,-25.84 0.15,-8.86 4.75,-15.06 10.88,-21.01 2.59,-2.52 5.21,-5.01 7.83,-7.5 5.57,-4.09 10.82,-8.66 15.92,-13.21 9.09,-8.12 17.88,-16.7 26.28,-25.53 2.25,-2.37 4.49,-4.76 6.69,-7.19 7.71,-7.91 15.06,-16.18 21.99,-24.72 6.89,-2.51 13.51,-5.83 19.71,-9.74 -2.7,2.74 -5.43,5.44 -8.15,8.17 -6.05,6.07 -12.33,12.17 -19.35,17.12 -0.72,0.51 -0.28,1.6 0.6,1.43 8.92,-1.78 17.26,-4.75 25.05,-9.48 7.92,-4.81 14.9,-11.35 21.41,-17.9 3.69,-1.66 7.24,-3.81 10.49,-5.91 0.17,-0.11 0.35,-0.23 0.52,-0.34 -3.2,10.15 -7.9,21.64 -17.91,25.26 -0.33,0.12 -0.3,0.66 0.08,0.64 8.44,-0.5 15.21,-4.29 20.57,-9.82 4.31,-3.1 8.41,-6.38 12.33,-9.96 3.8,-3.46 7.39,-7.18 10.81,-11.02 -4.77,9.46 -10.12,18.71 -15.4,27.86 -0.28,0.48 0.31,1.14 0.8,0.8 11.14,-7.54 19.58,-17.27 26.49,-28.78 1.02,-1.69 1.99,-3.42 2.94,-5.15 -0.72,2.71 -1.5,5.41 -2.34,8.1 -1.52,4.86 -3.01,9.73 -4.53,14.58 -0.82,2.62 -1.82,5.18 -2.91,7.69 -0.78,1.8 -1.81,3.6 -1.97,5.57 -0.01,0.13 0.13,0.22 0.25,0.19 4.44,-1.11 8.57,-6.18 11.74,-9.31 1.76,-1.75 3.41,-3.67 4.93,-5.69 0.28,11.65 0.48,23.3 0.22,34.99 -0.48,21.46 -1.86,42.92 -3.64,64.31 -1.57,18.91 -2.72,38.76 -13.27,55.19 -8.16,12.72 -21.4,21.52 -35.78,25.79 -1.27,0.38 -2.54,0.72 -3.82,1.03 -20.82,4.94 -41.55,-0.66 -59.95,-10.56 -5.53,-2.97 -10.26,5.09 -4.92,8.41 19.97,12.44 45.28,16.67 67.88,11.1 -0.71,26.71 12.45,52.04 25.53,74.7 7.32,12.68 14.65,25.27 19.83,39.02 4.39,11.67 7.38,23.78 8.38,36.24 1.19,14.68 0.02,29.45 -2.03,44 -0.11,0.79 -0.22,1.59 -0.34,2.38 -0.46,3.13 2.35,5.75 5.39,4.15 13.45,-7.07 19.25,-22.14 22.78,-36.07 3.3,-13.05 5.54,-26.36 6.78,-39.76 1.83,5.05 3.31,10.23 4.46,15.51 0.16,0.76 0.31,1.51 0.46,2.27 0.87,4.41 7.55,4.1 8.62,0 0.19,-0.74 0.38,-1.48 0.55,-2.23 5.51,-22.29 6.99,-45.53 4.08,-68.31 -1.53,-11.98 -4.09,-23.81 -7.89,-35.28z"/>
         </g>
         <g id="face_x002f_Smiling">
          <path id="__xd83d__xdd8d_-Ink_2" class="fil1" d="M411.59 374.43c-4.66,-1.9 -8.82,-5.07 -11.85,-9.12 -1.06,-1.41 -1.33,-2.9 -1.11,-4.26 0.25,-1.53 1.15,-2.92 2.39,-3.85 1.24,-0.93 2.79,-1.39 4.28,-1.16 1.3,0.2 2.59,0.92 3.62,2.39l0.21 0.3c1.81,2.45 4.16,4.45 6.84,5.74 2.58,1.25 5.47,1.83 8.47,1.49 5.7,-0.65 9.63,-3.73 13.8,-7.91 0.52,-0.53 1.03,-1.07 1.56,-1.63 0.33,-0.5 0.78,-0.83 1.29,-0.99 0.56,-0.19 1.2,-0.18 1.78,0.03 0.56,0.2 1.06,0.57 1.4,1.06 0.32,0.47 0.5,1.05 0.44,1.72 -0.38,4.34 -2.65,8.21 -5.87,11.25 -3.58,3.38 -8.32,5.71 -12.78,6.53 -4.92,0.9 -9.93,0.26 -14.47,-1.6l0 0zm16.79 -66.93c5.23,3.18 13.21,10.6 7.58,18.49 -6.63,6.96 -16.17,-1.02 -20.87,-4.63 -4.36,-2.79 -9.26,4.39 -5.21,7.66 33.97,25.16 47.75,-20.69 21.15,-25.26 -2.93,-0.5 -4.02,2.76 -2.65,3.74zm-60.87 -29.27c0.58,-7.18 11.51,-8.81 12.59,-1.7 0.97,6.36 -0.17,12.21 -3.04,17.94 -2.74,5.47 -9.62,2.92 -10.14,-2.07 -0.7,-6.68 0.22,-9.7 0.58,-14.17zm83.19 -3.18c1.52,-2 3.72,-3.36 6.36,-2.59 8.23,2.41 5.81,14.1 2.92,19.8 -1.57,3.09 -6.65,3.87 -8.95,1.15 -3.74,-4.44 -5.53,-13.3 -0.78,-17.68 0.13,-0.23 0.27,-0.45 0.45,-0.68zm-73.75 -28.23l1.3 -0.23c4.02,-0.7 9.03,-1.37 11.87,1.87 1.51,1.72 2.03,4.91 0,6.55 -3.57,2.89 -7.52,1.77 -11.8,2.01 -3.52,0.2 -6.91,0.79 -10.31,1.76 -7.45,2.13 -13.52,6.02 -19.88,10.29 -0.84,0.56 -1.69,-0.51 -1.29,-1.29 3.67,-7.2 10.79,-13.11 17.92,-16.71 3.81,-1.92 7.97,-3.52 12.18,-4.25zm66.25 -3.22l1 0.2c10.84,2.27 24.91,6.79 30.04,17.44 0.2,1.51 -0.01,1.83 -0.18,2.04l-0.06 0.07c-0.14,0.18 -0.25,0.43 -0.9,0.63 -0.18,-0.04 -0.36,-0.09 -0.55,-0.14 -2.35,-0.62 -4.21,-1.47 -6.02,-2.35l-1.95 -0.96c-2.27,-1.11 -4.55,-2.18 -6.97,-2.97 -5.17,-1.69 -10.49,-2.88 -15.89,-3.51 -1.17,-0.14 -2.3,-0.53 -3.19,-1.21 -0.84,-0.64 -1.49,-1.53 -1.78,-2.72 -0.38,-1.53 -0.27,-2.69 0.55,-4.07 0.62,-1.04 1.5,-1.76 2.52,-2.17 1.03,-0.42 2.21,-0.52 3.38,-0.28z"/>
         </g>
         <g id="facial-hair_x002f__x002a_-None">
         </g>
         <g id="accessories_x002f__x002a_-None">
         </g>
        </g>
       </g>
      </g>
     </g>
    </g>
   </g>
  </g>
  <path class="fil2" d="M331.38 662.77c-183.02,0 -331.38,-148.37 -331.38,-331.38 0,-183.02 148.37,-331.38 331.38,-331.38 183.02,0 331.38,148.37 331.38,331.38 0,183.02 -148.37,331.38 -331.38,331.38z"/>
 </g>
</svg>
