<?xml version="1.0" encoding="UTF-8"?>
<!DOCTYPE svg PUBLIC "-//W3C//DTD SVG 1.1//EN" "http://www.w3.org/Graphics/SVG/1.1/DTD/svg11.dtd">
<!-- Creator: CorelDRAW -->
<svg xmlns="http://www.w3.org/2000/svg" xml:space="preserve" width="84.6667mm" height="84.6667mm" version="1.1" style="shape-rendering:geometricPrecision; text-rendering:geometricPrecision; image-rendering:optimizeQuality; fill-rule:evenodd; clip-rule:evenodd"
viewBox="0 0 565.53 565.53"
 xmlns:xlink="http://www.w3.org/1999/xlink"
 xmlns:xodm="http://www.corel.com/coreldraw/odm/2003">
 <defs>
  <style type="text/css">
   <![CDATA[
    .fil2 {fill:none}
    .fil1 {fill:#262624}
    .fil0 {fill:#D97757}
   ]]>
  </style>
   <clipPath id="id0">
    <path d="M282.77 565.53c-156.17,0 -282.77,-126.6 -282.77,-282.77 0,-156.17 126.6,-282.77 282.77,-282.77 156.17,0 282.77,126.6 282.77,282.77 0,156.17 -126.6,282.77 -282.77,282.77z"/>
   </clipPath>
 </defs>
 <g id="Capa_x0020_1">
  <metadata id="CorelCorpID_0Corel-Layer"/>
  <path class="fil0" d="M282.77 565.53c-156.17,0 -282.77,-126.6 -282.77,-282.77 0,-156.17 126.6,-282.77 282.77,-282.77 156.17,0 282.77,126.6 282.77,282.77 0,156.17 -126.6,282.77 -282.77,282.77z"/>
  <g style="clip-path:url(#id0)">
   <g id="_3013364584160">
    <g>
     <g id="Introduction">
      <g id="variations">
       <g id="images">
        <g id="a-person_x002f_bust">
         <g id="body_x002f_Dress">
          <path id="_1" class="fil0" d="M455.07 718.36c-1.36,-12.61 -2.19,-25.31 -2.67,-37.98 -0.48,-12.66 0.15,-25.47 0.42,-38.14 0.56,-25.76 1.47,-51.59 -0.58,-77.31 -1.94,-24.31 -6.39,-48.45 -13.41,-71.81 -3.42,-11.38 -7.02,-23.21 -12.64,-33.72 -5.65,-10.57 -14.61,-17.61 -24.44,-24.06 -10.47,-6.87 -20.86,-13.87 -31.29,-20.81 -8.76,-5.82 -24.52,-12.6 -31.7,-20.38 -7.56,-8.19 -8.98,-28.49 -14.02,-38.19 -4.9,-9.45 -18.78,-15.61 -29.47,-15.61 -17.69,0 -31.09,-0.9 -45.64,15.47 -7.26,8.17 -1.48,16.42 -9.09,24.26 -6.99,7.21 -24.88,14.61 -33.89,18.8 -10.8,5.01 -21.86,9.43 -33.09,13.37 -11.45,4.02 -23.2,7.01 -34.72,10.81 -11.04,3.63 -25.46,18.62 -34.03,26.55 -7.97,7.37 -9.95,6.55 -16,15.5 -13.3,19.65 -26.61,39.53 -37.19,60.81 -5.27,10.6 -10.38,21.75 -12.29,33.52 -2.04,12.55 -0.02,24.69 3.29,36.84 3.37,12.37 14.07,24.15 17.55,36.49 1.61,5.69 -3.91,11.89 -1.37,17.25 1.27,2.68 2.86,5.06 4.68,7.39 1.4,1.8 6.86,1.4 7.56,3.6 0.71,2.22 -3.23,6.83 -3.29,9.13 -0.08,3.29 -0.21,6.58 -0.32,9.87l-0.64 19.45c-0.42,12.78 -0.84,25.56 -1.26,38.34 -0.14,4.17 -0.34,8.25 0.66,12.2 -0.36,-0.33 -0.7,-0.7 -1.02,-1.11 -0.92,-1.2 -2.86,-0.18 -2.08,1.22 1.3,2.34 3.17,3.98 5.36,5.17 2.55,3.76 388.83,12.16 390.73,1.17 1.07,-6.17 -0.87,-12.78 -1.65,-18.91 -0.81,-6.39 -1.77,-12.74 -2.46,-19.15z"/>
          <g>
           <path id="__xd83d__xdd8d_-Ink" class="fil1" d="M62.69 559.44c0.95,-2.71 5.27,-1.54 4.32,1.19 -4.89,14.02 -1.42,29.27 3.87,42.65 1.06,2.69 -3.27,3.84 -4.32,1.19 -5.56,-14.08 -9.01,-30.31 -3.87,-45.03l0 0zm32.8 80.07c13.8,1.94 27.61,3.14 41.5,4.11 0.62,0.04 1.16,-0.05 1.62,-0.25 -0.41,6.36 -0.75,12.73 -1.01,19.1 -3.79,-0.11 -7.65,0.14 -11.41,0.04 -4.91,-0.13 -9.81,-0.38 -14.7,-0.75 -9.48,-0.72 -18.94,-1.86 -28.31,-3.44 -3.5,-0.59 -7.95,-0.95 -11.94,-2.11 -3.77,-1.1 -7.13,-2.93 -8.89,-6.36 -1.5,-2.91 -1.77,-6.48 -1.77,-9.69 0,-2.22 0.38,-4.47 0.61,-6.7 0.29,-0.2 0.54,-0.44 0.75,-0.71 4.16,1.32 8.48,2.24 12.71,3.13 6.89,1.47 13.88,2.65 20.85,3.63l0 0zm-7.78 -51.75c0.08,4.28 1.26,8.16 3.56,11.77 1.56,2.44 -2.32,4.68 -3.87,2.26 -2.71,-4.24 -4.08,-9 -4.17,-14.03 -0.05,-2.89 4.42,-2.88 4.48,0l0 0zm353.66 46.67c1.87,0.1 3.75,0.17 5.62,0.27 1.65,1.41 3.94,2.14 6.03,1.69 0.07,0.18 0.14,0.38 0.2,0.62 0.37,1.44 0.55,2.98 0.77,4.45 0.21,1.44 0.38,2.9 0.49,4.36 0.06,0.73 0.41,2.39 -0.04,3.03 -0.4,0.58 -1.29,0.53 -1.91,0.6 -1.66,0.18 -3.33,0.26 -5,0.4 -3.15,0.27 -6.3,0.55 -9.44,0.82 -3.08,0.27 -6.47,0.19 -9.48,1 -0.51,-6.05 -0.98,-12.1 -1.42,-18.16 4.67,0.69 9.56,0.67 14.19,0.93l0 0zm-391.7 -10.04c1.88,3.63 3.61,7.2 7.21,9.39 0.47,0.28 1,0.43 1.53,0.47 -0.4,1.73 -0.65,3.5 -0.88,5.13 -0.49,3.6 -0.6,7.32 0.3,10.87 0.88,3.45 2.33,6.54 5.19,8.75 1.33,1.03 2.78,1.81 4.3,2.43 -0.26,0.72 -0.41,1.44 -0.33,2.23 -0.36,1.83 -0.6,3.69 -0.87,5.48 -0.58,3.96 -1.15,7.93 -1.61,11.92 -0.91,7.93 -1.62,15.85 -2.21,23.8 -0.6,7.93 -1.03,15.87 -1.39,23.82 -0.19,4.06 -0.35,8.13 -0.5,12.2 -0.15,4.18 -0.83,8.46 1.02,12.34 1.49,3.13 6.52,2.96 8.06,0 1.96,-3.76 1.38,-8.22 1.43,-12.34 0.05,-3.88 0.12,-7.76 0.2,-11.64 0.17,-7.94 0.41,-15.88 0.61,-23.82 0.19,-7.75 0.43,-15.5 0.58,-23.25 0.08,-4.06 0.08,-8.12 0.11,-12.17 0.01,-2.25 0.11,-4.65 -0.06,-7 1.4,0.33 2.81,0.61 4.2,0.9 10.64,2.18 21.38,3.77 32.2,4.76 5.43,0.49 10.88,0.84 16.33,1.04 4.01,0.15 8.16,0.43 12.22,0.27 -0.32,9.72 -0.46,19.44 -0.45,29.16 0.01,7.01 0.11,14.03 0.28,21.04 0.09,3.69 0.17,7.38 0.29,11.07 0.05,1.66 0.05,3.33 0.16,4.98 0.03,0.52 0.11,1.01 0.2,1.51 -0.37,1.05 -0.68,2.08 -0.93,3.05 -1.23,4.7 -1.23,9.22 -0.68,14.01 0.47,4.06 3.89,7.83 8.4,6.4 0.73,-0.23 1.47,-0.47 2.19,-0.72 6.65,0.76 13.33,0.93 20.07,1.06 9.85,0.19 19.71,0.25 29.57,0.3 19.34,0.1 38.68,0.15 58.02,0.21 38.87,0.11 77.73,0.22 116.6,0.33 10.79,0.03 21.57,0.06 32.36,0.1 5.58,0.02 11.16,0.02 16.73,0.24 2.6,0.1 5.21,0.24 7.81,0.28 3.02,0.05 5.68,-0.82 8.57,-1.61 1.63,-0.45 2.27,-2.09 1.93,-3.47 2.61,0.62 5.77,-0.7 6.66,-3.64 0.65,-2.13 0.41,-4.44 -0.56,-6.42l0 -0.01c-1.87,-11.8 -4.24,-23.55 -6.1,-35.36 -2.04,-12.93 -4.01,-25.9 -5.73,-38.88 -1.3,-9.81 -2.37,-2.85 -3.29,-12.71 4.02,0.31 8.57,-0.91 12.55,-1.43 2.86,-0.37 5.74,-0.67 8.61,-1.06 -0.21,2.89 -0.15,5.83 -0.23,8.6 -0.15,5.5 -0.08,10.98 0.06,16.48 0.27,10.62 0.87,4.44 1.82,15.01 0.97,10.65 2.15,21.26 3.59,31.86 0.74,5.46 1.53,10.91 2.36,16.35 0.39,2.54 0.78,5.08 1.19,7.62 0.49,2.99 0.64,5.83 2.89,8.08 1.71,1.71 5.19,1.56 6.32,-0.82 1.43,-3.01 0.78,-5.58 0.25,-8.74 -0.43,-2.54 -0.84,-5.07 -1.25,-7.61 -0.87,-5.44 -1.7,-10.87 -2.48,-16.32 -1.5,-10.49 -2.92,-21.01 -4.18,-31.53 -1.28,-10.61 -2.59,-4.41 -3.85,-15.02 -0.63,-5.35 -1.26,-10.69 -2,-16.02 -0.37,-2.74 -0.61,-5.66 -1.1,-8.49 0.16,-0.02 0.31,-0.05 0.47,-0.08 3.4,-0.62 6.3,-2.54 7.16,-6.05 0.82,-3.35 -0.16,-7.21 -0.85,-10.5 -0.59,-2.8 -1.12,-6.38 -2.92,-8.78 6.36,-8.1 10.49,-18.29 13.13,-28.09 2.87,-10.67 4.07,-21.82 4.33,-32.85 0.3,-12.78 -0.67,-25.48 -2.86,-37.98 -0.05,-2.65 -0.17,-5.29 -0.37,-7.94 -1.92,-25.95 -10,-56.66 -35.62,-68.78 -0.1,-0.05 -0.21,-0.09 -0.31,-0.14 -2.01,-2.4 -4.51,-4.56 -6.54,-6.58 -3.59,-3.58 -7.33,-7.01 -11.31,-10.16 -7.87,-6.25 -16.49,-11.24 -25.46,-15.74 -9.07,-4.55 -18.27,-8.82 -27.13,-13.79 -7.72,-4.33 -14.67,-9.55 -21.27,-15.44 -7.41,-6.62 -12.69,-15.55 -14.76,-25.29 -0.11,-0.51 -0.86,-0.37 -0.87,0.12 -0.54,17.86 11.51,33.64 25.38,43.63 16.58,11.93 36.61,17.57 53.42,29.14 4.18,2.87 8.09,6.11 11.81,9.55 -5.7,-0.58 -11.5,-0.21 -16.85,1.37 -2.1,-0.13 -4.22,-0.17 -6.33,-0.27 -4.82,-0.24 -9.65,-0.46 -14.48,-0.68 -9.84,-0.44 -19.69,-0.83 -29.53,-1.18 -19.32,-0.68 -38.64,-1.2 -57.97,-1.54 -38.83,-0.69 -77.72,-0.82 -116.55,0.3 -10.53,0.3 -65.9,-1.8 -71.02,-1.2 7.54,-6.53 15.81,-11.85 24.9,-16.24 11.37,-5.47 23.13,-9.12 35.27,-12.45 25.01,-6.87 50.99,-13.49 71.01,-30.93 4.97,-4.34 9.39,-9.32 13.01,-14.85 3.46,-5.27 7.3,-12.02 7.4,-18.45 0.07,-4.57 -6.29,-6.23 -8.55,-2.32 -1.4,2.42 -2.1,5.08 -3.24,7.62 -1.14,2.52 -2.49,4.95 -4,7.27 -2.96,4.57 -6.63,8.64 -10.62,12.32 -8.52,7.85 -18.83,13.6 -29.51,17.94 -24.24,9.87 -50.74,14.03 -73.71,27.04 -10.05,5.69 -19.67,13.54 -25.7,23.56 -0.97,0.15 -1.94,0.33 -2.91,0.53 0.72,-0.91 1.45,-1.82 2.18,-2.73 0.48,-0.59 -0.26,-1.38 -0.85,-0.85 -11.42,10.16 -21.94,21.14 -31.47,33.11 -9.12,11.45 -17.62,23.45 -23.64,36.86 -10.82,24.09 -13.2,51.64 -7.61,77.4 1.52,7.02 3.67,13.89 6.41,20.53 1.41,3.43 2.94,6.81 4.64,10.11z"/>
          </g>
         </g>
         <g id="head_x002f_Medium-Bangs-3">
          <path id="__xd83c__xdfa8_-Background_0" class="fil0" d="M296.18 121.99c31.77,0 71.55,36.25 83.2,51.68 9.79,12.97 8.4,79.79 8.4,119.42 0,8.29 -3.75,23.98 -5.11,31.91 -4.98,29.06 -26.69,53.42 -69.66,53.42 -34.99,0 -61.91,-11.09 -87.95,-39.44 -5.94,-6.47 -34.95,16.69 -40.88,8.35 -15.5,0 -28.45,-144.84 1.97,-188.28 30.42,-43.44 78.25,-37.07 110.01,-37.07z"/>
          <path id="__xd83d__xdd8d_-Ink_1" class="fil1" d="M200.7 132.2c18.36,-16.71 42.81,-24.74 67.48,-24.15 12.78,0.31 25.51,2.74 37.58,6.91 6.04,2.09 11.88,4.82 17.47,7.91 2.02,1.11 3.87,2.41 5.66,3.79l0.44 0.35 0.01 0c4.8,1.72 9.07,4.82 12.96,8.44 7.78,-0.62 15.63,0.08 23.15,2.48 10.47,3.35 20.17,9.48 26.98,18.18 7.93,10.13 10.57,22.42 9.63,35.11l-0.17 2.15c-0.93,11.21 -2.6,25.62 -11.79,32.99 -0.7,0.56 -1.47,0.99 -2.27,1.24 5.92,10.15 10.79,21.43 13.7,32.81 11.11,43.48 2.57,88.83 -10.79,130.74 -1.1,3.45 -6.32,5.75 -8.97,2.37 -4.75,-6.03 -11.64,-10.63 -19.39,-11.5 -4.78,-0.53 -9.55,0.43 -14.07,-1.74 -1.77,-0.86 -3.49,-2.26 -4.72,-3.96 -7.63,2.89 -15.85,4.26 -24,3.92 -13.38,-0.55 -27.68,-5.18 -36.88,-15.35 -1.48,-1.63 -1.85,-3.46 -1.51,-5.12 1.15,-0.41 2.34,-0.72 3.56,-0.91 11.67,6.88 24.54,11.48 38.36,11.77 7.99,0.17 15.78,-0.95 22.26,-5.94 1.4,-1.08 2.69,-2.28 3.88,-3.56 13.54,-8.72 23.09,-23.52 27.63,-39.38 4.23,-14.79 3.71,-30.19 2.25,-45.35l-0.77 -8c-1.12,-11.75 -2.16,-23.53 -2.45,-35.33l0.09 -0 0 0c2.86,-0.19 2.88,-4.66 0,-4.48 -7.45,0.48 -14.85,-0.74 -22.28,-0.21 -0.06,-3.51 -0.32,-7.01 -1.35,-10.4 -0.59,-1.94 -3.96,-2.32 -4.32,0 -0.48,3.1 -0.65,6.18 -0.7,9.3 -11.12,-0.15 -22.22,-1.08 -33.34,-0.7 -2.05,-2.19 -2.7,-6.07 -3.66,-8.77 -0.14,-0.4 -0.28,-0.79 -0.43,-1.19 -0.84,3.86 -2.04,7.63 -3.61,11.32l-2.73 0.01c-15.47,0.07 -31.26,0.53 -46.37,3.75 -1.05,-0.81 -1.67,-2.21 -1.84,-3.49 -1.1,-8.32 -2.66,-16.41 -5.43,-24.33l-0.4 -1.12c-0.03,-0.09 -0.07,-0.19 -0.1,-0.29 -2.04,3.3 -4.48,6.37 -7.14,9.24 -1.57,1.69 -3.21,3.3 -4.9,4.87 -1.64,1.82 -3.33,3.61 -4.97,5.44 0.06,0.33 0.12,0.67 0.17,1.01 0.5,3.79 0.55,7.63 0.19,11.43 -0.66,6.87 -2.6,13.49 -5.72,19.62l-0.1 0.61c-0.47,2.87 -1.15,5.84 -2.72,8 1.96,2.2 3.47,4.82 4.35,7.74 0.78,2.6 -2.81,4.85 -4.67,2.72 -1.48,-1.69 -3.12,-3.09 -4.93,-4.2 -0.11,0.15 -0.32,0.23 -0.55,0.1 -5.03,-2.79 -13.57,-1.95 -18.6,0.68 -6.25,3.27 -8.69,9.98 -8,16.78 0.67,6.5 3.51,14.09 9.02,17.42 2.53,1.53 4.5,1.66 7.18,0.92 0.86,-0.23 1.92,-0.95 2.38,-1.3l0.45 -0.36c1.76,-1.39 3.4,-2.35 5.48,-2.38 2.13,-0.66 4.26,0.26 5.07,2.49l0.05 0.14c0.38,1.14 1.07,2.56 0.92,4.3 -0.16,1.86 -1.01,3.55 -2.28,4.91 -0.22,0.24 -0.45,0.47 -0.69,0.69 21.88,23.69 24.68,60.61 13.47,90.21 -0.49,1.3 -1.01,2.58 -1.55,3.85 -1.87,4.35 -9.09,3.01 -10.01,-1.31 -0.27,-1.29 -0.58,-2.58 -0.91,-3.86 -0.61,-2.36 -1.3,-4.69 -2.09,-7l-0.3 -0.86c-0.67,-1.9 -1.29,-3.82 -1.96,-5.73l-0.07 -0.22c-0.02,-0.09 -0.05,-0.19 -0.08,-0.3l-1.13 2.48 0 0 -3.45 7.48c-1.62,3.49 -6.75,1.59 -6.94,-1.77l-0 -0.12c-0.02,-0.62 -0.04,-1.24 -0.08,-1.85 -0.25,-4.57 -1.04,-9.02 -2.29,-13.37l-0.45 0.56c-6.73,8.33 -14.63,16.13 -25.47,18.05 -2.72,0.48 -5.8,-2.36 -3.93,-5.11 0.77,-1.14 1.52,-2.3 2.22,-3.48 -0.61,-0.29 -1.19,-0.58 -1.72,-0.88 -4.11,-2.31 -7.54,-5.6 -10.37,-9.34 -6,-7.91 -8.15,-17.88 -8.68,-27.63 -0.56,-10.3 0.35,-21.17 3.16,-31.11 1.22,-4.3 2.87,-8.42 4.78,-12.43 -0.13,-0.36 -0.26,-0.72 -0.39,-1.07 -2.06,-5.74 -3.75,-11.61 -5.15,-17.55 -2.83,-11.99 -4.35,-24.36 -4.54,-36.68 -0.34,-22.07 3.47,-44.49 11.49,-65.07 8.28,-21.22 20.73,-41.67 37.68,-57.09zm-10.31 192.95c-1.52,-2.39 -5.32,-0.24 -3.91,2.18l0.05 0.09c2.41,3.8 3.54,8.12 4.93,12.36 0.89,2.73 5.21,1.56 4.31,-1.19l-0.3 -0.92c-1.38,-4.3 -2.64,-8.66 -5.08,-12.51zm13.24 -45.72l1.01 -0.49c3.19,-1.52 5.98,-2.56 9.74,-1.23 5.04,1.77 10.44,7.42 7.03,12.9 -1.25,2.02 -3.48,2.83 -5.77,2.35 -3.87,-0.8 -4.87,-4.29 -6.83,-7.15l-0.34 -0.48c-1.2,-1.73 -2.71,-4.12 -4.7,-4.8 -0.45,-0.16 -0.64,-0.86 -0.14,-1.1zm2.84 -116.34l0.33 -0.29c2.16,-1.91 -1.01,-5.07 -3.17,-3.17 -9.86,8.72 -13.28,22.36 -18.4,33.98 -1.15,2.61 2.71,4.9 3.87,2.26 4.88,-11.09 8.12,-24.36 17.37,-32.78l0 0zm118.47 -3.81c-2.58,-1.16 -4.83,2.59 -2.35,3.82l0.09 0.04c8.71,3.93 12.41,12.85 15.96,21.12 1.13,2.64 4.99,0.36 3.87,-2.26l-0.64 -1.48c-3.7,-8.52 -8.02,-17.21 -16.92,-21.24zm13.64 -5.38c-2.73,-0.95 -3.9,3.37 -1.19,4.32 7.38,2.57 12.44,8.11 16.71,14.44 1.6,2.37 5.48,0.14 3.86,-2.26 -4.96,-7.35 -10.84,-13.53 -19.38,-16.5z"/>
         </g>
         <g id="face_x002f_Smiling">
          <path id="__xd83d__xdd8d_-Ink_2" class="fil1" d="M323.6 339.13c-3.76,-1.54 -7.12,-4.1 -9.57,-7.37 -0.85,-1.14 -1.07,-2.34 -0.9,-3.44 0.2,-1.24 0.93,-2.35 1.93,-3.1 1,-0.75 2.25,-1.12 3.46,-0.93 1.05,0.16 2.09,0.74 2.92,1.93l0.17 0.24c1.46,1.98 3.36,3.59 5.53,4.64 2.09,1.01 4.42,1.48 6.84,1.2 4.6,-0.52 7.77,-3.01 11.14,-6.39 0.42,-0.43 0.84,-0.87 1.26,-1.31 0.27,-0.41 0.63,-0.67 1.04,-0.8 0.45,-0.15 0.97,-0.14 1.44,0.02 0.45,0.16 0.86,0.46 1.13,0.86 0.26,0.38 0.4,0.85 0.36,1.39 -0.31,3.5 -2.14,6.63 -4.74,9.09 -2.89,2.73 -6.72,4.61 -10.32,5.27 -3.97,0.73 -8.02,0.21 -11.68,-1.29l0 0zm13.55 -54.04c4.22,2.57 10.66,8.56 6.12,14.93 -5.35,5.62 -13.05,-0.82 -16.85,-3.74 -3.52,-2.26 -7.47,3.55 -4.21,6.18 27.43,20.31 38.56,-16.7 17.08,-20.4 -2.37,-0.41 -3.24,2.23 -2.14,3.02zm-49.15 -23.63c0.47,-5.8 9.29,-7.11 10.17,-1.38 0.79,5.14 -0.14,9.86 -2.45,14.48 -2.21,4.42 -7.77,2.36 -8.19,-1.67 -0.56,-5.39 0.18,-7.83 0.47,-11.44zm67.17 -2.57c1.23,-1.61 3.01,-2.71 5.13,-2.09 6.65,1.94 4.69,11.39 2.35,15.98 -1.27,2.5 -5.37,3.13 -7.22,0.93 -3.02,-3.58 -4.47,-10.74 -0.63,-14.27 0.1,-0.18 0.22,-0.37 0.36,-0.55zm-59.55 -22.8l1.05 -0.18c3.25,-0.56 7.29,-1.1 9.59,1.51 1.22,1.38 1.64,3.96 0,5.29 -2.88,2.33 -6.07,1.43 -9.52,1.63 -2.85,0.16 -5.58,0.63 -8.32,1.42 -6.02,1.72 -10.92,4.86 -16.05,8.31 -0.67,0.45 -1.36,-0.41 -1.04,-1.04 2.97,-5.81 8.71,-10.59 14.47,-13.5 3.07,-1.55 6.44,-2.84 9.83,-3.43zm53.49 -2.6l0.8 0.16c8.75,1.83 20.12,5.48 24.26,14.08 0.16,1.22 -0.01,1.48 -0.14,1.65l-0.04 0.06c-0.11,0.14 -0.2,0.35 -0.73,0.51 -0.15,-0.03 -0.29,-0.07 -0.44,-0.11 -1.9,-0.5 -3.4,-1.18 -4.86,-1.9l-1.58 -0.78c-1.83,-0.9 -3.68,-1.76 -5.63,-2.4 -4.18,-1.36 -8.47,-2.32 -12.83,-2.83 -0.94,-0.11 -1.85,-0.43 -2.57,-0.98 -0.68,-0.52 -1.2,-1.24 -1.44,-2.19 -0.31,-1.24 -0.22,-2.17 0.44,-3.29 0.5,-0.84 1.21,-1.42 2.03,-1.75 0.83,-0.34 1.79,-0.42 2.73,-0.23z"/>
         </g>
         <g id="facial-hair_x002f__x002a_-None">
         </g>
         <g id="accessories_x002f_Glasses-3">
          <g>
           <path id="__xd83d__xdd8d_-Ink_3" class="fil1" d="M384.33 290.09c-3.77,5.06 -10.75,6.68 -17.19,6.12 -13.89,-1.34 -18.27,-17.12 -18.72,-29.39 9.32,2.62 -0.79,-15.95 31.06,-17.99 11.23,-0.94 8.13,5.85 13.09,10.8 -0.1,10.4 -1.83,21.7 -8.24,30.46l0 0zm-66.17 -11.95c-8.2,38.42 -53.12,29.28 -57.83,-5.35 4.36,-3.08 3.21,-10.67 8.62,-13.42 8.58,-5.48 19.3,-5.25 29.04,-5.12 12.45,0.86 16,6.02 22.4,11.65 -0.31,3.76 -1.19,8.22 -2.22,12.25l0 0zm83.96 -35.67c-0.46,-0.08 -0.92,-0.15 -1.38,-0.22 -0.36,-0.2 -0.78,-0.36 -1.27,-0.46 -1.12,-0.29 -2.24,-0.48 -3.35,-0.58 -15.96,-3.59 -52.89,1.51 -54.42,15.14 -5.08,1.7 -9.48,0.18 -15.37,0.33 -4.48,-18.75 -82.02,-16.11 -85.75,-4.8 -0.01,-0 -0.03,-0.01 -0.04,-0.01 -3.58,-1.11 -8.87,-0.84 -12.97,-1.02 -8.76,-0.18 -17.52,0.6 -26.09,2.45 -16.04,2.55 -37.94,5.54 -26.78,25.58 0,0 0,0.01 0.01,0.01l0 -0c1.92,1.97 5.19,0.38 5.31,-2.29 -3.75,-9.49 4.72,-10.63 11.24,-13.36 16.22,-5.83 32.74,-6.64 49.51,-4.83 1.26,1.49 3.18,2.78 5.2,3.46 11.22,1.86 5.3,10.19 12.4,11.4 -1.3,29.02 33.91,44.85 54.32,25.78 8.15,-7.97 10.09,-19.77 11.98,-30.41 1,-0.22 1.63,-0.77 2.01,-1.49 2.4,-2.4 3.91,-4.61 8.66,-5.27 4.75,-0.66 8.41,0.66 8.9,1.07 0.12,0.25 0.26,0.5 0.41,0.76 0.22,0.38 0.51,0.67 0.85,0.91 -4.69,28.89 17.73,47.17 40.37,32.18 9.84,-9.26 11.91,-23.43 12.33,-36.07 1.33,-0.81 2.18,-2.37 1.72,-4.33 -0.64,-2.7 0.86,-5.04 3.23,-6.22 3.09,-1.53 2.54,-7.1 -1.01,-7.69z"/>
          </g>
         </g>
        </g>
       </g>
      </g>
     </g>
    </g>
   </g>
  </g>
  <path class="fil2" d="M282.77 565.53c-156.17,0 -282.77,-126.6 -282.77,-282.77 0,-156.17 126.6,-282.77 282.77,-282.77 156.17,0 282.77,126.6 282.77,282.77 0,156.17 -126.6,282.77 -282.77,282.77z"/>
 </g>
</svg>
